<svg width="215" height="83" viewBox="0 0 215 83" fill="none" xmlns="http://www.w3.org/2000/svg">
<path d="M25.304 26.92V20.392C25.304 18.344 24.6 16.616 23.192 15.208C21.784 13.8 20.056 13.096 18.008 13.096C15.96 13.096 14.2 13.8 12.728 15.208C11.32 16.616 10.616 18.344 10.616 20.392V58.6C10.616 60.648 11.32 62.376 12.728 63.784C14.2 65.192 15.96 65.896 18.008 65.896C20.056 65.896 21.784 65.192 23.192 63.784C24.6 62.376 25.304 60.648 25.304 58.6V52.072H32.888V58.6C32.888 60.648 32.472 62.568 31.64 64.36C30.872 66.152 29.816 67.72 28.472 69.064C27.128 70.408 25.56 71.496 23.768 72.328C21.976 73.096 20.056 73.48 18.008 73.48C15.96 73.48 14.008 73.096 12.152 72.328C10.36 71.496 8.792 70.408 7.448 69.064C6.104 67.72 5.048 66.152 4.28 64.36C3.512 62.568 3.128 60.648 3.128 58.6V20.392C3.128 18.344 3.512 16.424 4.28 14.632C5.048 12.84 6.104 11.272 7.448 9.928C8.792 8.584 10.36 7.528 12.152 6.75999C14.008 5.928 15.96 5.512 18.008 5.512C20.056 5.512 21.976 5.928 23.768 6.75999C25.56 7.528 27.128 8.584 28.472 9.928C29.816 11.272 30.872 12.84 31.64 14.632C32.472 16.424 32.888 18.344 32.888 20.392V26.92H25.304ZM55.0483 5.608C57.0963 5.608 59.0163 5.992 60.8083 6.75999C62.6003 7.528 64.1683 8.584 65.5123 9.928C66.8563 11.272 67.9123 12.84 68.6803 14.632C69.5123 16.424 69.9283 18.344 69.9283 20.392V73H62.3443V49.864L47.6562 56.296V73H40.1683V20.392C40.1683 18.344 40.5523 16.424 41.3203 14.632C42.0883 12.84 43.1443 11.272 44.4883 9.928C45.8323 8.584 47.4003 7.528 49.1923 6.75999C51.0483 5.992 53.0003 5.608 55.0483 5.608ZM62.3443 20.392C62.3443 18.344 61.6403 16.616 60.2323 15.208C58.8243 13.8 57.0963 13.096 55.0483 13.096C53.0003 13.096 51.2403 13.8 49.7682 15.208C48.3602 16.616 47.6562 18.344 47.6562 20.392V48.616L62.3443 42.28V20.392ZM93.7648 33.352C95.1728 34.056 96.6448 34.856 98.1808 35.752C99.7808 36.584 101.221 37.608 102.501 38.824C103.845 40.04 104.933 41.512 105.765 43.24C106.661 44.904 107.109 46.888 107.109 49.192V58.6C107.109 60.648 106.693 62.568 105.861 64.36C105.093 66.152 104.037 67.72 102.693 69.064C101.349 70.408 99.7808 71.496 97.9888 72.328C96.1968 73.096 94.2768 73.48 92.2288 73.48C90.1808 73.48 88.2288 73.096 86.3728 72.328C84.5808 71.496 83.0128 70.408 81.6688 69.064C80.3248 67.72 79.2688 66.152 78.5008 64.36C77.7328 62.568 77.3488 60.648 77.3488 58.6V52.072H84.8368V58.6C84.8368 60.648 85.5408 62.376 86.9488 63.784C88.4208 65.192 90.1808 65.896 92.2288 65.896C94.2768 65.896 96.0048 65.192 97.4128 63.784C98.8208 62.376 99.5248 60.648 99.5248 58.6V49.192C99.5248 47.144 98.7888 45.512 97.3168 44.296C95.8448 43.016 93.5408 41.608 90.4048 40.072C89.0608 39.432 87.6528 38.728 86.1808 37.96C84.7728 37.128 83.4928 36.2 82.3408 35.176C81.1888 34.088 80.2288 32.84 79.4608 31.432C78.6928 29.96 78.3088 28.232 78.3088 26.248V20.392C78.3088 18.28 78.6608 16.328 79.3648 14.536C80.0688 12.68 81.0288 11.112 82.2448 9.832C83.5248 8.488 84.9968 7.432 86.6608 6.664C88.3888 5.896 90.2448 5.512 92.2288 5.512C94.2128 5.512 96.0368 5.896 97.7008 6.664C99.3648 7.432 100.805 8.488 102.021 9.832C103.301 11.112 104.293 12.68 104.997 14.536C105.701 16.328 106.053 18.28 106.053 20.392V26.92H98.5648V20.392C98.5648 17.896 97.8928 16.072 96.5488 14.92C95.2048 13.704 93.7648 13.096 92.2288 13.096C90.6928 13.096 89.2528 13.704 87.9088 14.92C86.5648 16.072 85.8928 17.896 85.8928 20.392V26.248C85.8928 27.72 86.5008 28.936 87.7168 29.896C88.9968 30.856 91.0128 32.008 93.7648 33.352ZM144.935 5.992V73H137.351V44.68L122.663 52.84V73H115.175V5.992H122.663V44.776L137.351 36.712V5.992H144.935ZM180.374 65.512V73H154.454V6.184H161.942V65.512H180.374ZM205.609 5.992V23.944C205.609 25.288 205.257 26.792 204.553 28.456C203.849 30.12 202.921 31.752 201.769 33.352C200.681 34.952 199.465 36.424 198.121 37.768C196.841 39.112 195.625 40.104 194.473 40.744V73H186.984V40.744C185.769 40.168 184.489 39.208 183.145 37.864C181.865 36.52 180.681 35.048 179.593 33.448C178.505 31.848 177.609 30.216 176.905 28.552C176.201 26.824 175.849 25.288 175.849 23.944V5.992H183.337V23.944C183.337 24.456 183.625 25.288 184.201 26.44C184.841 27.528 185.577 28.648 186.409 29.8C187.241 30.952 188.073 31.976 188.905 32.872C189.737 33.704 190.345 34.12 190.729 34.12C191.113 34.12 191.689 33.704 192.457 32.872C193.289 31.976 194.121 30.952 194.953 29.8C195.785 28.648 196.489 27.528 197.065 26.44C197.705 25.288 198.025 24.456 198.025 23.944V5.992H205.609Z" fill="#9BB4A8"/>
<path d="M28.4469 26.92V20.392C28.4469 18.344 27.7429 16.616 26.3349 15.208C24.9269 13.8 23.1989 13.096 21.1509 13.096C19.1029 13.096 17.3429 13.8 15.8709 15.208C14.4629 16.616 13.7589 18.344 13.7589 20.392V58.6C13.7589 60.648 14.4629 62.376 15.8709 63.784C17.3429 65.192 19.1029 65.896 21.1509 65.896C23.1989 65.896 24.9269 65.192 26.3349 63.784C27.7429 62.376 28.4469 60.648 28.4469 58.6V52.072H36.0309V58.6C36.0309 60.648 35.6149 62.568 34.7829 64.36C34.0149 66.152 32.9589 67.72 31.6149 69.064C30.2709 70.408 28.7029 71.496 26.9109 72.328C25.1189 73.096 23.1989 73.48 21.1509 73.48C19.1029 73.48 17.1509 73.096 15.2949 72.328C13.5029 71.496 11.9349 70.408 10.5909 69.064C9.24685 67.72 8.19085 66.152 7.42285 64.36C6.65485 62.568 6.27085 60.648 6.27085 58.6V20.392C6.27085 18.344 6.65485 16.424 7.42285 14.632C8.19085 12.84 9.24685 11.272 10.5909 9.928C11.9349 8.584 13.5029 7.528 15.2949 6.75999C17.1509 5.928 19.1029 5.512 21.1509 5.512C23.1989 5.512 25.1189 5.928 26.9109 6.75999C28.7029 7.528 30.2709 8.584 31.6149 9.928C32.9589 11.272 34.0149 12.84 34.7829 14.632C35.6149 16.424 36.0309 18.344 36.0309 20.392V26.92H28.4469ZM58.1911 5.608C60.2391 5.608 62.1591 5.992 63.9511 6.75999C65.7431 7.528 67.3111 8.584 68.6551 9.928C69.9991 11.272 71.0551 12.84 71.8231 14.632C72.6551 16.424 73.0711 18.344 73.0711 20.392V73H65.4871V49.864L50.7991 56.296V73H43.3111V20.392C43.3111 18.344 43.6951 16.424 44.4631 14.632C45.2311 12.84 46.2871 11.272 47.6311 9.928C48.9751 8.584 50.5431 7.528 52.3351 6.75999C54.1911 5.992 56.1431 5.608 58.1911 5.608ZM65.4871 20.392C65.4871 18.344 64.7831 16.616 63.3751 15.208C61.9671 13.8 60.2391 13.096 58.1911 13.096C56.1431 13.096 54.3831 13.8 52.9111 15.208C51.5031 16.616 50.7991 18.344 50.7991 20.392V48.616L65.4871 42.28V20.392ZM96.9076 33.352C98.3156 34.056 99.7876 34.856 101.324 35.752C102.924 36.584 104.364 37.608 105.644 38.824C106.988 40.04 108.076 41.512 108.908 43.24C109.804 44.904 110.252 46.888 110.252 49.192V58.6C110.252 60.648 109.836 62.568 109.004 64.36C108.236 66.152 107.18 67.72 105.836 69.064C104.492 70.408 102.924 71.496 101.132 72.328C99.3396 73.096 97.4196 73.48 95.3716 73.48C93.3236 73.48 91.3716 73.096 89.5156 72.328C87.7236 71.496 86.1556 70.408 84.8116 69.064C83.4676 67.72 82.4116 66.152 81.6436 64.36C80.8756 62.568 80.4916 60.648 80.4916 58.6V52.072H87.9796V58.6C87.9796 60.648 88.6836 62.376 90.0916 63.784C91.5636 65.192 93.3236 65.896 95.3716 65.896C97.4196 65.896 99.1476 65.192 100.556 63.784C101.964 62.376 102.668 60.648 102.668 58.6V49.192C102.668 47.144 101.932 45.512 100.46 44.296C98.9876 43.016 96.6836 41.608 93.5476 40.072C92.2036 39.432 90.7956 38.728 89.3236 37.96C87.9156 37.128 86.6356 36.2 85.4836 35.176C84.3316 34.088 83.3716 32.84 82.6036 31.432C81.8356 29.96 81.4516 28.232 81.4516 26.248V20.392C81.4516 18.28 81.8036 16.328 82.5076 14.536C83.2116 12.68 84.1716 11.112 85.3876 9.832C86.6676 8.488 88.1396 7.432 89.8036 6.664C91.5316 5.896 93.3876 5.512 95.3716 5.512C97.3556 5.512 99.1796 5.896 100.844 6.664C102.508 7.432 103.948 8.488 105.164 9.832C106.444 11.112 107.436 12.68 108.14 14.536C108.844 16.328 109.196 18.28 109.196 20.392V26.92H101.708V20.392C101.708 17.896 101.036 16.072 99.6916 14.92C98.3476 13.704 96.9076 13.096 95.3716 13.096C93.8356 13.096 92.3956 13.704 91.0516 14.92C89.7076 16.072 89.0356 17.896 89.0356 20.392V26.248C89.0356 27.72 89.6436 28.936 90.8596 29.896C92.1396 30.856 94.1556 32.008 96.9076 33.352ZM148.078 5.992V73H140.494V44.68L125.806 52.84V73H118.318V5.992H125.806V44.776L140.494 36.712V5.992H148.078ZM183.517 65.512V73H157.597V6.184H165.085V65.512H183.517ZM208.751 5.992V23.944C208.751 25.288 208.399 26.792 207.695 28.456C206.991 30.12 206.063 31.752 204.911 33.352C203.823 34.952 202.607 36.424 201.263 37.768C199.983 39.112 198.767 40.104 197.615 40.744V73H190.127V40.744C188.911 40.168 187.631 39.208 186.287 37.864C185.007 36.52 183.823 35.048 182.735 33.448C181.647 31.848 180.751 30.216 180.047 28.552C179.343 26.824 178.991 25.288 178.991 23.944V5.992H186.479V23.944C186.479 24.456 186.767 25.288 187.343 26.44C187.983 27.528 188.719 28.648 189.551 29.8C190.383 30.952 191.215 31.976 192.047 32.872C192.879 33.704 193.487 34.12 193.871 34.12C194.255 34.12 194.831 33.704 195.599 32.872C196.431 31.976 197.263 30.952 198.095 29.8C198.927 28.648 199.631 27.528 200.207 26.44C200.847 25.288 201.167 24.456 201.167 23.944V5.992H208.751Z" fill="#054A29"/>
</svg>
