<svg width="295" height="277" viewBox="0 0 295 277" fill="none" xmlns="http://www.w3.org/2000/svg">
<path d="M179.865 0.00439957C180.226 0.00304121 180.588 0.00168285 180.96 0.000283327C187.925 -0.013382 194.748 0.46537 201.584 1.85208C201.822 1.89955 202.059 1.94701 202.304 1.99591C206.984 2.93571 211.555 4.1516 216.087 5.66293C216.421 5.77428 216.755 5.88563 217.1 6.00035C229.648 10.2519 241.479 16.6102 251.696 25.1472C252.236 25.5964 252.785 26.0354 253.334 26.4739C256.157 28.7865 258.733 31.3443 261.306 33.9325C261.485 34.1116 261.664 34.2907 261.849 34.4752C264.303 36.9368 266.568 39.4986 268.706 42.2471C268.916 42.5132 269.126 42.7794 269.342 43.0536C282.876 60.3176 291.234 80.9992 293.919 102.851C293.958 103.143 293.996 103.436 294.035 103.737C296.818 125.688 293.784 151.625 282.298 170.748C282.139 171.013 281.981 171.279 281.817 171.552C281.524 172.031 281.219 172.504 280.902 172.968C280.349 173.854 279.99 174.593 280.137 175.652C280.419 176.54 280.763 177.38 281.13 178.237C281.412 178.973 281.691 179.711 281.969 180.449C282.421 181.63 282.874 182.809 283.335 183.985C283.48 184.366 283.625 184.746 283.774 185.138C283.906 185.481 284.039 185.823 284.176 186.176C284.438 187.179 284.452 187.637 284.053 188.584C283.117 189.415 283.117 189.415 282.226 190.062C282.965 193.187 283.824 196.257 284.763 199.326C285.039 200.238 285.315 201.15 285.591 202.062C286.022 203.479 286.453 204.896 286.885 206.314C287.306 207.695 287.725 209.077 288.143 210.458C288.271 210.878 288.4 211.298 288.533 211.73C289.572 215.17 290.408 218.484 290.379 222.096C290.376 222.525 290.376 222.525 290.373 222.963C290.17 232.865 285.11 242.45 280.443 250.905C278.177 255.03 276.079 259.241 273.961 263.444C272.408 266.525 270.845 269.599 269.257 272.66C269.103 272.958 268.948 273.256 268.79 273.564C268.646 273.84 268.502 274.116 268.354 274.401C268.227 274.644 268.101 274.887 267.971 275.137C267.637 275.744 267.26 276.325 266.879 276.903C266.397 276.781 265.914 276.659 265.417 276.533C265.582 274.244 266.643 272.483 267.701 270.505C268.103 269.741 268.504 268.977 268.906 268.213C269.114 267.818 269.323 267.424 269.537 267.017C270.354 265.462 271.153 263.897 271.952 262.333C273.638 259.028 275.358 255.747 277.133 252.49C287.055 234.744 287.055 234.744 287.142 215.003C287.046 214.637 286.949 214.271 286.85 213.894C285.694 209.583 284.35 205.332 283.003 201.079C282.506 199.511 282.013 197.943 281.521 196.374C281.408 196.02 281.295 195.667 281.179 195.302C281.076 194.975 280.973 194.647 280.868 194.31C280.777 194.024 280.686 193.737 280.592 193.442C280.399 192.648 280.399 192.649 280.399 191.17C280.174 191.283 279.949 191.396 279.717 191.513C273.71 194.515 267.639 197.2 261.398 199.67C261.012 199.823 260.626 199.975 260.229 200.133C259.151 200.559 258.071 200.982 256.99 201.402C256.507 201.59 256.507 201.59 256.015 201.782C255.722 201.894 255.429 202.007 255.127 202.122C254.872 202.22 254.617 202.318 254.355 202.419C253.724 202.626 253.724 202.626 252.993 202.626C255.347 207.668 257.739 212.677 260.362 217.582C262.459 221.556 262.853 224.305 261.578 228.639C261.17 229.967 260.737 231.286 260.301 232.605C260.106 233.204 259.911 233.803 259.716 234.402C257.385 241.529 254.884 248.597 252.379 255.662C251.635 257.761 250.897 259.862 250.16 261.963C249.555 263.686 248.948 265.408 248.341 267.13C248.048 267.961 247.756 268.792 247.465 269.623C247.061 270.776 246.654 271.928 246.246 273.079C246.126 273.425 246.005 273.771 245.881 274.127C245.713 274.597 245.713 274.597 245.542 275.077C245.446 275.351 245.349 275.625 245.25 275.907C244.954 276.533 244.954 276.533 244.223 276.903C243.693 276.938 243.161 276.95 242.629 276.95C242.123 276.952 242.123 276.952 241.607 276.954C241.235 276.953 240.862 276.953 240.478 276.952C239.887 276.954 239.887 276.954 239.284 276.955C237.955 276.957 236.626 276.957 235.296 276.957C234.347 276.958 233.398 276.959 232.448 276.96C230.132 276.963 227.816 276.964 225.5 276.965C223.618 276.965 221.736 276.966 219.855 276.967C214.524 276.97 209.194 276.972 203.864 276.971C203.576 276.971 203.289 276.971 202.992 276.971C202.561 276.971 202.561 276.971 202.12 276.971C197.451 276.971 192.783 276.975 188.114 276.98C183.325 276.985 178.536 276.988 173.747 276.987C171.056 276.987 168.366 276.988 165.675 276.992C163.146 276.996 160.617 276.996 158.088 276.993C157.157 276.993 156.227 276.994 155.296 276.996C154.031 276.999 152.765 276.997 151.5 276.994C151.127 276.996 150.754 276.998 150.37 277C150.033 276.998 149.696 276.997 149.349 276.995C149.057 276.995 148.764 276.995 148.463 276.995C147.754 276.903 147.754 276.903 147.024 276.164C146.878 272.979 147.886 269.622 148.508 266.51C148.564 266.23 148.619 265.95 148.676 265.662C149.514 261.465 150.436 257.293 151.454 253.137C151.568 252.667 151.682 252.197 151.8 251.713C152.37 249.438 153.023 247.268 153.865 245.081C154.773 242.587 154.918 240.414 154.811 237.778C154.803 237.379 154.795 236.979 154.786 236.567C154.765 235.6 154.736 234.634 154.697 233.667C154.482 233.627 154.266 233.587 154.044 233.546C151.619 233.078 149.257 232.471 146.887 231.773C146.509 231.662 146.131 231.551 145.741 231.437C142.561 230.477 139.494 229.306 136.434 228.013C136.176 227.905 135.918 227.797 135.653 227.686C135.077 227.434 134.514 227.15 133.956 226.86C133.112 226.542 133.112 226.542 132.301 227.075C132.02 227.307 131.738 227.539 131.448 227.778C126.812 231.336 122.347 231.868 116.694 231.45C112.014 230.539 108.239 226.329 105.666 222.506C101.958 216.633 99.5992 210.237 97.593 203.603C97.486 203.25 97.3789 202.897 97.2687 202.534C97.0699 201.875 96.8739 201.215 96.6813 200.554C96.2094 199.004 95.8475 197.901 94.5869 196.829C92.4181 194.8 90.7033 192.435 88.923 190.062C88.672 189.731 88.672 189.731 88.4158 189.393C79.6709 177.833 73.9852 164.772 69.9216 150.891C69.7572 151.235 69.5928 151.58 69.4234 151.935C67.6797 155.472 65.6248 158.339 62.9788 161.238C62.7616 161.487 62.5445 161.737 62.3207 161.994C56.8373 167.994 47.8062 171.909 39.8076 172.375C29.9541 172.746 20.7362 170.413 13.1913 163.663C12.6087 163.105 12.03 162.543 11.4556 161.977C11.0267 161.571 11.0267 161.571 10.5892 161.157C4.1397 154.91 0.297448 145.928 0.0050793 136.915C-0.132505 125.719 2.50806 116.561 9.99397 108.025C10.3303 107.638 10.3303 107.638 10.6734 107.244C16.3474 101.126 25.1809 96.5939 33.5087 96.154C44.1725 95.8186 53.3997 98.4264 61.3153 105.94C62.9553 107.533 64.5532 109.123 65.9021 110.981C65.9238 110.65 65.9238 110.65 65.946 110.313C66.8487 97.0665 69.2855 84.0016 74.672 71.81C74.4685 71.932 74.265 72.0539 74.0553 72.1795C73.0919 72.6009 72.4227 72.6343 71.3833 72.5491C71.0178 72.1795 71.0178 72.1795 70.9853 71.4667C70.9915 71.1546 70.9977 70.8426 71.0041 70.521C71.0103 70.1683 71.0164 69.8156 71.0228 69.4522C71.0359 68.8766 71.0359 68.8766 71.0492 68.2893C71.057 67.8979 71.0648 67.5064 71.0728 67.1031C71.0897 66.2734 71.1076 65.4436 71.1263 64.6139C71.1547 63.3406 71.1793 62.0673 71.2034 60.7939C71.2203 59.9896 71.2374 59.1854 71.2548 58.3811C71.262 57.9981 71.2693 57.6151 71.2768 57.2204C71.2895 56.6896 71.2895 56.6896 71.3024 56.1481C71.3092 55.8357 71.316 55.5234 71.323 55.2016C71.3833 54.4418 71.3833 54.4418 71.7487 53.7027C71.4617 53.9019 71.1747 54.101 70.879 54.3062C69.7931 55.0591 68.7058 55.81 67.6181 56.5604C67.1515 56.8827 66.6852 57.2056 66.2193 57.529C55.6297 64.8778 55.6297 64.8778 50.1893 64.0497C48.2131 63.0814 46.593 61.7956 44.9137 60.3775C44.4038 59.9504 43.8938 59.5236 43.3835 59.0971C43.1226 58.8785 42.8616 58.6599 42.5928 58.4347C41.7766 57.7608 40.9496 57.1035 40.1177 56.4497C39.8498 56.237 39.582 56.0242 39.3061 55.8051C38.791 55.3966 38.2733 54.9916 37.7526 54.5905C36.0146 53.1994 36.0146 53.1994 35.5942 51.9012C35.5872 51.6421 35.5801 51.3829 35.5728 51.1159C39.9066 47.8855 39.9066 47.8855 42.47 48.0904C43.22 48.2143 43.9663 48.3626 44.7081 48.5292C45.4191 48.6791 46.1301 48.829 46.8416 48.9762C47.5281 49.1223 48.2115 49.2829 48.8947 49.4444C51.7684 49.8737 53.4517 48.988 55.739 47.3975C56.0085 47.2158 56.278 47.0342 56.5556 46.8471C57.36 46.3037 58.1601 45.7545 58.9592 45.2034C59.8033 44.6246 60.6486 44.0475 61.4943 43.4712C61.8367 43.2335 62.1792 42.9958 62.532 42.7508C63.3442 42.2471 63.3442 42.2471 64.075 42.2471C63.0643 41.0609 61.7647 40.3596 60.4423 39.5852C60.193 39.4371 59.9436 39.289 59.6868 39.1363C58.8894 38.6627 58.0909 38.1912 57.292 37.7202C47.8397 32.1455 47.8397 32.1455 47.3566 30.7189C47.3267 30.4989 47.2968 30.279 47.266 30.0524C48.1574 29.416 49.0549 28.796 49.961 28.1816C50.2092 28.0022 50.4574 27.8229 50.7132 27.6381C53.4223 25.833 55.7624 26.4974 58.8066 27.1299C59.5398 27.293 60.2724 27.4584 61.0047 27.6258C61.5935 27.7577 61.5935 27.7577 62.1943 27.8923C63.4383 28.1715 64.6816 28.4536 65.9249 28.7359C66.7606 28.924 67.5963 29.1119 68.4321 29.2996C69.97 29.6453 71.5076 29.992 73.0448 30.3402C73.5495 30.454 73.5495 30.454 74.0643 30.57C74.7045 30.7157 75.3442 30.8641 75.9831 31.0154C76.2733 31.0834 76.5636 31.1515 76.8627 31.2216C77.1151 31.2819 77.3675 31.3422 77.6275 31.4043C80.1772 31.865 81.9115 30.6561 83.9215 29.2902C84.5311 28.8892 85.1411 28.489 85.7514 28.0892C86.0808 27.872 86.4101 27.6548 86.7495 27.431C88.5533 26.2515 90.3742 25.1006 92.2002 23.9569C92.8163 23.57 93.4303 23.1797 94.0443 22.7893C97.582 20.571 100.387 19.2521 104.636 19.7053C106.021 20.2213 106.978 20.7864 107.924 21.9225C108.191 22.7583 108.191 22.7583 108.358 23.6547C108.445 24.1028 108.445 24.1028 108.534 24.5598C108.574 24.787 108.614 25.0143 108.655 25.2484C108.961 24.9978 109.267 24.7472 109.582 24.4891C112.692 21.9644 115.885 19.6488 119.252 17.4881C119.463 17.3521 119.674 17.2161 119.892 17.076C132.544 8.99371 146.491 3.57907 161.275 1.22849C161.819 1.13774 161.819 1.13774 162.375 1.04517C168.192 0.110329 173.988 0.0149641 179.865 0.00439957Z" fill="#0F3D1E"/>
<path d="M223.714 128C238.295 129.453 252.959 133.952 262.788 145.764C270.032 154.979 274.242 166.383 278.518 177.253C279.024 178.54 279.539 179.823 280.056 181.106C280.325 181.777 280.593 182.448 280.862 183.119C281.041 183.561 281.041 183.561 281.223 184.011C281.741 185.322 282 186.204 282 187.639C274.981 191.974 267.381 195.001 259.779 198.076C259.326 198.259 259.326 198.259 258.865 198.446C257.994 198.797 257.122 199.147 256.25 199.497C255.993 199.6 255.736 199.704 255.471 199.811C254.15 200.337 252.822 200.841 251.484 201.318C251.224 201.411 250.964 201.505 250.696 201.6C249.943 201.803 249.943 201.803 248.486 201.803C247.628 199.668 246.77 197.532 245.913 195.397C245.784 195.074 245.654 194.752 245.521 194.42C244.032 190.711 242.549 187 241.079 183.283C240.954 182.967 240.829 182.65 240.7 182.325C240.101 180.808 239.502 179.291 238.905 177.773C238.688 177.224 238.471 176.675 238.254 176.126C238.108 175.754 238.109 175.754 237.96 175.375C237.503 174.22 237.031 173.087 236.464 171.984C236.104 171.984 235.743 171.984 235.371 171.984C235.596 173.952 236.22 175.584 236.972 177.389C237.098 177.695 237.223 178.001 237.352 178.316C237.621 178.972 237.89 179.628 238.161 180.283C238.585 181.309 239.004 182.337 239.423 183.365C240.497 186.002 241.573 188.638 242.655 191.272C243.188 192.571 243.715 193.872 244.238 195.176C244.518 195.871 244.805 196.563 245.092 197.255C246.579 200.984 246.579 200.984 245.936 203.294C245.784 203.963 245.634 204.632 245.486 205.302C245.302 206.085 245.118 206.868 244.934 207.651C242.367 218.86 241.206 229.828 240.836 241.314C238.684 242.192 236.561 242.825 234.301 243.341C233.785 243.46 233.785 243.46 233.259 243.581C229.136 244.504 224.975 245.166 220.8 245.787C220.519 245.83 220.238 245.873 219.949 245.917C213.149 246.94 206.259 246.993 199.398 246.998C199.027 246.999 198.656 246.999 198.273 247C191.748 246.998 185.385 246.6 178.907 245.787C178.173 245.705 177.44 245.623 176.706 245.542C172.732 245.083 168.822 244.367 164.905 243.551C164.458 243.458 164.011 243.365 163.55 243.269C158.877 242.259 158.877 242.259 157.05 241.314C156.585 239.831 156.636 238.317 156.628 236.77C156.626 236.506 156.625 236.243 156.623 235.971C156.619 235.4 156.616 234.828 156.613 234.257C156.609 233.341 156.602 232.425 156.594 231.509C156.572 228.905 156.552 226.301 156.54 223.697C156.49 213.953 156.355 204.25 154.113 194.721C151.716 184.094 152.556 175.203 154.5 164.529C154.019 164.529 153.538 164.529 153.043 164.529C151.355 172.712 150.75 180.416 150.857 188.757C149.286 187.564 147.736 186.361 146.235 185.076C141.14 180.902 135.124 177.943 129 175.711C132.235 164.577 140.326 153.518 147.943 145.146C148.183 144.881 148.423 144.615 148.67 144.341C155.033 137.542 164.787 133.319 173.807 132.1C174.4 132.707 174.33 133.479 174.445 134.313C175.075 137.972 176.762 141.322 179.741 143.527C185.383 147.173 192.469 147.55 198.923 146.236C208.397 143.941 217.745 137.786 222.986 129.281C223.226 128.858 223.467 128.436 223.714 128Z" fill="#CDEB8E"/>
<path d="M210.597 25.6985C210.984 25.8969 211.37 26.0952 211.769 26.2995C215.032 28.0171 218.419 29.8652 220.845 32.7253C220.845 32.9694 220.845 33.2135 220.845 33.4649C221.087 33.4649 221.328 33.4649 221.577 33.4649C221.66 33.6785 221.743 33.8921 221.829 34.1121C222.266 34.9936 222.266 34.9936 223.11 35.5452C224.631 36.8431 225.602 38.4579 226.702 40.1219C226.891 40.3898 227.081 40.6577 227.276 40.9338C231.094 46.4065 231.094 46.4065 231.094 48.9978C231.335 48.9978 231.577 48.9978 231.826 48.9978C234.77 54.4989 235.863 60.8271 236.805 66.9392C237.268 69.9122 237.938 72.7362 238.78 75.6255C238.914 76.138 239.046 76.6508 239.176 77.164C240.989 84.091 244.678 89.6488 249.128 95.1672C251.225 97.8127 251.225 97.8127 251.225 98.9247C251.587 99.0467 251.95 99.1688 252.323 99.2945C252.947 100.279 253.347 101.382 253.787 102.461C253.917 102.778 254.047 103.094 254.18 103.42C257.164 110.978 256.901 118.707 254.153 126.292C254.062 126.547 253.971 126.801 253.877 127.064C253.604 127.771 253.604 127.771 253.055 128.881C252.693 129.003 252.331 129.125 251.957 129.251C251.927 129.502 251.897 129.754 251.866 130.013C251.509 131.423 250.874 132.446 250.127 133.689C250.58 133.814 250.58 133.814 251.042 133.943C252.966 134.672 254.592 135.741 256.189 137.04C256.924 137.631 257.593 138.065 258.408 138.52C259.4 139.095 260.012 139.498 260.742 140.346C261.047 140.632 261.047 140.632 261.359 140.923C261.84 141.455 261.84 141.455 261.84 142.195C262.202 142.317 262.564 142.439 262.938 142.565C265.763 145.61 267.958 149.1 270.03 152.689C270.161 152.913 270.292 153.138 270.427 153.369C271.018 154.412 271.356 155.026 271.356 156.248C271.598 156.248 271.839 156.248 272.088 156.248C272.209 156.98 272.33 157.713 272.454 158.467C272.696 158.467 272.938 158.467 273.186 158.467C274.141 160.703 275.09 162.94 276.034 165.18C276.447 166.154 276.864 167.126 277.283 168.097C277.519 168.655 277.755 169.212 277.99 169.77C278.103 170.027 278.215 170.284 278.331 170.549C279.069 172.316 279.069 172.316 278.926 173.432C278.843 173.62 278.761 173.807 278.677 174C278.435 174 278.194 174 277.945 174C277.558 173.397 277.193 172.779 276.847 172.151C276.605 171.785 276.364 171.419 276.115 171.041C275.781 170.319 275.459 169.591 275.144 168.86C274.952 168.419 274.76 167.978 274.563 167.524C274.462 167.291 274.36 167.058 274.256 166.817C267.496 151.293 259.688 139.294 243.594 132.788C240.113 131.44 236.562 130.428 232.924 129.621C232.559 129.533 232.194 129.446 231.817 129.356C227.6 128.199 227.6 128.199 223.466 128.867C222.303 129.921 221.613 131.258 220.882 132.635C220.206 133.781 219.316 134.68 218.375 135.607C218.191 135.789 218.008 135.971 217.819 136.159C210.845 142.896 201.643 147.149 191.952 147.118C191.584 147.124 191.215 147.13 190.835 147.136C185.884 147.139 181.221 145.6 177.563 142.15C175.043 139.416 174.1 136.215 173.628 132.579C164.707 134.42 156.279 137.291 149.471 143.674C149.151 143.968 148.83 144.262 148.5 144.565C144.101 148.793 140.702 153.853 137.475 159.018C137.288 159.315 137.101 159.613 136.909 159.92C136.664 160.317 136.664 160.317 136.414 160.721C135.93 161.423 134.655 165.958 134 166.5C133.638 166.5 133.268 165.965 133 165.5C132.758 165.622 132.5 166.5 132 166C132.446 164.508 133.937 160.116 134.83 158.837C135.072 158.837 135.313 158.837 135.562 158.837C135.662 158.568 135.762 158.299 135.865 158.022C137.024 155.229 138.811 152.324 140.686 149.961C140.928 149.961 141.17 149.961 141.419 149.961C141.506 149.76 141.593 149.56 141.683 149.353C142.272 148.256 142.996 147.346 143.775 146.378C144.061 146.018 144.348 145.659 144.643 145.288C145.445 144.414 145.445 144.414 146.543 144.044C146.543 143.8 146.543 143.556 146.543 143.304C146.784 143.304 147.026 143.304 147.275 143.304C147.396 142.938 147.516 142.572 147.641 142.195C148.444 141.491 149.245 140.833 150.089 140.184C150.313 140.007 150.537 139.83 150.769 139.649C152.13 138.585 153.519 137.594 154.961 136.647C154.63 136.426 154.63 136.426 154.292 136.201C154 136.005 153.707 135.809 153.406 135.607C153.117 135.414 152.828 135.221 152.531 135.022C150.853 133.868 150.853 133.868 150.203 133.319C150.203 133.075 150.203 132.831 150.203 132.579C149.841 132.457 149.478 132.335 149.105 132.209C147.746 130.913 146.688 129.383 145.809 127.721C145.552 127.235 145.281 126.757 145 126.285C142.382 121.823 140.885 116.447 142.148 111.295C142.511 109.993 142.941 108.718 143.382 107.441C143.628 106.649 143.8 105.862 143.964 105.049C144.329 103.301 144.935 101.706 145.605 100.057C146.424 97.9939 147.168 95.9546 147.757 93.8106C148.12 92.6439 148.627 91.5573 149.154 90.4576C149.995 88.3935 150.171 85.9766 150.546 83.7848C150.608 83.438 150.67 83.0912 150.734 82.7338C152.122 74.5486 152.162 66.3342 152.173 58.0521C152.176 56.6018 152.188 55.1518 152.202 53.7015C152.2 53.2684 152.198 52.8353 152.196 52.389C152.245 48.2341 153.162 44.2827 155.282 40.6997C155.407 40.4866 155.533 40.2734 155.663 40.0538C156.635 38.4418 157.667 37.0179 158.988 35.6839C159.229 35.6839 159.471 35.6839 159.72 35.6839C159.961 35.1957 160.203 34.7076 160.452 34.2046C160.693 34.2046 160.935 34.2046 161.184 34.2046C161.264 33.9967 161.345 33.7889 161.428 33.5747C164.935 27.4657 174.834 23.9152 181.114 22.1126C190.729 19.825 201.831 21.0866 210.597 25.6985Z" fill="#0A271D"/>
<path d="M135.267 163C135.628 163.184 135.628 163.184 135.996 163.371C135.834 163.689 135.672 164.007 135.505 164.335C134.904 165.519 134.302 166.703 133.7 167.886C133.44 168.398 133.18 168.91 132.92 169.422C132.545 170.158 132.171 170.895 131.796 171.632C131.68 171.86 131.564 172.087 131.445 172.322C130.889 173.416 130.337 174.511 129.8 175.615C130.098 175.649 130.395 175.683 130.701 175.719C132.268 176.044 133.61 176.617 135.062 177.284C135.349 177.416 135.637 177.547 135.933 177.683C141.658 180.365 146.594 183.982 151.302 188.229C151.295 187.967 151.287 187.705 151.279 187.435C151.112 180.744 151.555 174.41 152.76 167.823C152.813 167.493 152.866 167.164 152.92 166.824C152.974 166.524 153.027 166.224 153.082 165.915C153.126 165.654 153.17 165.394 153.215 165.126C153.489 164.484 153.489 164.484 154.244 164.024C154.592 163.884 154.592 163.884 154.947 163.742C155.617 164.884 155.747 165.493 155.454 166.786C155.389 167.085 155.325 167.384 155.258 167.693C155.186 168.011 155.113 168.33 155.038 168.658C154.896 169.331 154.756 170.005 154.617 170.678C154.548 171.012 154.479 171.346 154.407 171.69C153.73 175.11 153.428 178.531 153.398 182.015C153.393 182.402 153.393 182.402 153.388 182.797C153.414 187.175 154.566 191.483 155.567 195.713C157.651 205.133 157.675 214.738 157.721 224.339C157.734 226.92 157.756 229.501 157.779 232.083C157.786 232.975 157.79 233.867 157.794 234.759C157.797 235.303 157.801 235.847 157.805 236.39C157.807 236.862 157.81 237.335 157.812 237.821C157.856 238.901 157.981 239.866 158.227 240.914C167.371 243.284 176.411 244.782 185.806 245.626C186.545 245.694 187.283 245.766 188.02 245.848C191.551 246.214 195.094 246.164 198.639 246.156C199.761 246.154 200.883 246.156 202.005 246.159C208.832 246.162 215.541 245.9 222.301 244.902C222.582 244.862 222.862 244.821 223.151 244.78C227.925 244.09 232.628 243.2 237.312 242.027C237.692 241.933 237.692 241.933 238.08 241.838C239.285 241.541 240.486 241.233 241.685 240.914C241.681 240.691 241.678 240.468 241.674 240.238C241.503 228.575 243.027 217.534 245.706 206.2C245.794 205.827 245.882 205.453 245.973 205.069C246.09 204.582 246.09 204.582 246.21 204.085C246.28 203.75 246.35 203.415 246.423 203.07C246.516 202.668 246.61 202.266 246.706 201.852C246.813 200.041 246.314 198.833 245.621 197.189C245.495 196.875 245.369 196.562 245.239 196.239C244.827 195.221 244.406 194.206 243.986 193.192C243.701 192.491 243.416 191.79 243.132 191.088C242.293 189.019 241.443 186.954 240.592 184.89C239.833 183.046 239.076 181.202 238.321 179.357C238.047 178.691 237.769 178.026 237.492 177.362C237.327 176.963 237.162 176.564 236.993 176.154C236.78 175.644 236.78 175.644 236.563 175.124C236.192 174.054 236.006 173.026 235.854 171.904C236.576 171.721 236.576 171.721 237.312 171.533C238.526 173.933 239.625 176.349 240.619 178.851C240.819 179.35 240.819 179.35 241.023 179.858C241.45 180.924 241.875 181.991 242.3 183.058C242.594 183.792 242.887 184.526 243.181 185.26C243.893 187.043 244.603 188.826 245.312 190.609C245.659 191.481 246.007 192.352 246.354 193.224C246.88 194.542 247.404 195.861 247.926 197.18C248.075 197.553 248.223 197.925 248.376 198.309C248.506 198.641 248.637 198.974 248.772 199.316C248.883 199.597 248.994 199.878 249.108 200.167C249.339 200.844 249.339 200.844 249.339 201.586C258.436 198.762 267.284 194.983 275.92 190.942C276.302 190.764 276.683 190.586 277.076 190.402C278.526 189.71 279.93 189.03 281.252 188.106C282.139 187.487 282.139 187.487 282.868 187.487C282.572 186.675 282.276 185.864 281.979 185.052C281.885 184.795 281.791 184.537 281.694 184.272C281.082 182.604 280.446 180.947 279.793 179.296C279.642 178.913 279.491 178.53 279.336 178.136C279.035 177.372 278.731 176.61 278.425 175.849C278.286 175.498 278.148 175.146 278.006 174.784C277.881 174.47 277.755 174.156 277.626 173.833C277.401 173.017 277.401 173.017 277.765 171.904C278.006 172.639 278.246 173.374 278.494 174.131C280.593 173.305 281.186 172.398 282.139 170.42C282.259 170.665 282.379 170.91 282.503 171.162C282.035 171.962 281.516 172.713 280.986 173.471C280.501 175.109 281.163 176.298 281.774 177.841C282.053 178.581 282.333 179.322 282.611 180.062C283.062 181.247 283.514 182.431 283.974 183.613C284.19 184.185 284.19 184.185 284.411 184.77C284.543 185.114 284.676 185.458 284.812 185.812C285.073 186.819 285.088 187.279 284.69 188.229C283.756 189.064 283.756 189.064 282.868 189.713C283.604 192.851 284.461 195.934 285.397 199.015C285.673 199.93 285.948 200.846 286.224 201.761C286.653 203.184 287.084 204.607 287.515 206.03C287.934 207.417 288.351 208.804 288.769 210.192C288.897 210.613 289.025 211.034 289.157 211.469C290.194 214.922 291.027 218.25 290.999 221.876C290.996 222.307 290.996 222.307 290.993 222.746C290.791 232.688 285.743 242.311 281.089 250.801C278.829 254.942 276.737 259.17 274.624 263.39C273.075 266.483 271.517 269.569 269.933 272.643C269.779 272.942 269.625 273.241 269.467 273.55C269.251 273.966 269.251 273.966 269.032 274.391C268.906 274.634 268.78 274.878 268.65 275.13C268.317 275.739 267.941 276.323 267.561 276.902C267.08 276.78 266.599 276.658 266.103 276.531C266.268 274.233 267.326 272.465 268.381 270.479C268.782 269.712 269.182 268.945 269.582 268.178C269.79 267.782 269.998 267.385 270.212 266.977C271.027 265.415 271.824 263.845 272.62 262.274C274.303 258.956 276.018 255.662 277.788 252.392C287.684 234.574 287.684 234.574 287.771 214.754C287.674 214.387 287.578 214.02 287.479 213.641C286.327 209.313 284.986 205.044 283.642 200.774C283.147 199.201 282.655 197.626 282.164 196.051C282.052 195.696 281.939 195.341 281.823 194.975C281.669 194.482 281.669 194.482 281.512 193.978C281.422 193.691 281.331 193.404 281.238 193.108C281.045 192.31 281.045 192.31 281.045 190.826C280.821 190.94 280.596 191.053 280.365 191.17C274.374 194.185 268.319 196.88 262.094 199.36C261.71 199.513 261.325 199.667 260.929 199.825C259.853 200.252 258.776 200.677 257.698 201.099C257.377 201.225 257.056 201.351 256.725 201.48C256.433 201.593 256.141 201.706 255.84 201.822C255.586 201.92 255.332 202.019 255.07 202.12C254.441 202.328 254.441 202.328 253.712 202.328C256.059 207.39 258.445 212.419 261.061 217.344C263.153 221.333 263.546 224.094 262.274 228.445C261.867 229.778 261.435 231.103 261.001 232.427C260.806 233.028 260.612 233.63 260.417 234.232C258.092 241.387 255.598 248.483 253.099 255.577C252.357 257.684 251.621 259.793 250.886 261.903C250.283 263.633 249.678 265.362 249.072 267.091C248.78 267.925 248.489 268.759 248.198 269.594C247.796 270.751 247.389 271.907 246.982 273.063C246.862 273.411 246.742 273.758 246.619 274.116C246.451 274.588 246.451 274.588 246.281 275.069C246.184 275.344 246.088 275.619 245.989 275.902C245.694 276.531 245.694 276.531 244.965 276.902C244.436 276.938 243.905 276.95 243.375 276.95C242.871 276.952 242.871 276.952 242.356 276.954C241.985 276.953 241.613 276.953 241.23 276.952C240.837 276.953 240.444 276.954 240.039 276.955C238.713 276.957 237.388 276.957 236.062 276.956C235.115 276.957 234.168 276.959 233.221 276.96C230.911 276.963 228.601 276.964 226.291 276.964C224.415 276.965 222.538 276.965 220.661 276.967C215.345 276.97 210.029 276.972 204.712 276.971C204.426 276.971 204.139 276.971 203.843 276.971C203.413 276.971 203.413 276.971 202.973 276.971C198.317 276.971 193.661 276.975 189.004 276.98C184.228 276.985 179.451 276.988 174.675 276.987C171.992 276.987 169.308 276.988 166.625 276.992C164.102 276.996 161.58 276.996 159.058 276.993C158.13 276.993 157.201 276.994 156.273 276.996C155.011 276.999 153.749 276.997 152.487 276.994C152.115 276.996 151.743 276.998 151.36 277C151.024 276.998 150.688 276.997 150.342 276.995C150.05 276.995 149.758 276.995 149.458 276.995C148.751 276.902 148.751 276.902 148.022 276.16C147.877 272.962 148.882 269.592 149.503 266.468C149.558 266.187 149.614 265.906 149.671 265.617C150.506 261.403 151.425 257.214 152.441 253.041C152.555 252.57 152.669 252.098 152.786 251.611C153.355 249.328 154.006 247.149 154.846 244.953C155.751 242.449 155.896 240.268 155.79 237.621C155.782 237.22 155.773 236.818 155.765 236.405C155.744 235.434 155.714 234.464 155.676 233.493C155.461 233.453 155.246 233.413 155.024 233.372C152.606 232.902 150.25 232.292 147.886 231.592C147.32 231.425 147.32 231.425 146.744 231.254C143.572 230.29 140.513 229.115 137.461 227.817C137.204 227.708 136.947 227.6 136.682 227.488C136.107 227.235 135.546 226.95 134.989 226.659C134.148 226.34 134.148 226.34 133.339 226.874C132.918 227.224 132.918 227.224 132.488 227.58C127.864 231.153 123.411 231.687 117.773 231.267C113.106 230.353 109.34 226.126 106.775 222.287C103.512 217.086 101.227 211.43 99.3689 205.574C99.2456 205.186 99.1222 204.797 98.9951 204.397C98.3657 202.338 97.9107 200.396 97.7289 198.247C98.4578 199.36 98.4578 199.36 98.4578 200.473C98.6983 200.595 98.9389 200.718 99.1867 200.844C99.4145 201.795 99.4145 201.795 99.5511 202.699C99.0652 199.978 98.5793 197.257 98.0933 194.537C97.7325 194.537 97.3717 194.537 97 194.537C97.2405 193.802 97.4811 193.067 97.7289 192.31C98.6399 193.238 98.7095 193.863 98.9973 195.137C99.0968 195.565 99.1963 195.993 99.2988 196.434C99.4046 196.895 99.5104 197.355 99.6195 197.829C101.754 206.747 104.583 216.325 110.485 223.476C110.653 223.715 110.822 223.954 110.996 224.201C112.721 226.543 115.435 228.124 118.138 229.041C124.02 229.651 128.147 228.465 132.813 224.699C137.415 220.763 140.788 215.613 144.014 210.49C144.253 210.113 144.253 210.113 144.497 209.727C146.614 206.382 148.671 203.005 150.642 199.568C150.813 199.272 150.984 198.976 151.161 198.671C151.396 198.255 151.396 198.255 151.637 197.831C151.775 197.588 151.913 197.345 152.056 197.095C152.722 195.717 152.846 194.775 152.396 193.308C150.087 186.922 140.226 182.278 134.546 179.547C132.762 178.718 130.941 178.069 129.071 177.47C128.953 177.801 128.953 177.801 128.833 178.139C128.471 179.14 128.099 180.137 127.727 181.133C127.604 181.481 127.48 181.829 127.352 182.187C127.227 182.52 127.101 182.852 126.971 183.194C126.859 183.501 126.746 183.808 126.63 184.125C126.014 185.118 125.583 188.666 124.5 189C124.805 186.078 125.511 180.18 126.845 177.584C127.542 176.107 128.086 174.569 128.653 173.036C129.023 172.035 130.275 170.148 130.669 169.156C130.91 169.156 131.752 169.5 132 169.5C131.5 170 130.514 169.692 130.554 169.422C130.833 168.229 131.367 167.137 131.941 166.061C132.128 165.703 132.315 165.345 132.508 164.977C133.08 164.113 133.08 164.113 134.174 163.742C134.354 164.109 134.354 164.109 134.538 164.484C134.779 163.994 135.019 163.505 135.267 163Z" fill="#0A261C"/>
<path d="M185.518 42C185.594 42.2732 185.67 42.5463 185.749 42.8277C188.467 51.848 196.688 59.6814 204.235 64.9282C204.439 65.0703 204.643 65.2125 204.853 65.359C207.937 67.4864 211.133 69.2364 214.511 70.8451C214.352 71.0458 214.193 71.2465 214.029 71.4533C213.825 71.7178 213.621 71.9824 213.41 72.255C213.206 72.5167 213.001 72.7784 212.791 73.0481C212.21 73.8095 212.21 73.8095 212.309 74.913C213.616 74.7027 214.163 74.2523 215.039 73.272C216.615 71.6366 217.738 71.1882 219.993 71.0762C221.746 71.1156 222.713 71.5041 224.053 72.6941C225.977 74.8951 226.047 76.5145 225.987 79.3883C225.741 82.9713 224.081 85.4626 221.484 87.8563C219.485 89.1201 217.644 89.3869 215.314 89.3587C214.956 89.3553 214.598 89.352 214.229 89.3485C213.823 89.3421 213.823 89.3421 213.41 89.3355C213.41 89.8237 213.41 90.3118 213.41 90.8148C214.379 90.9368 215.348 91.0588 216.346 91.1846C216.353 91.5881 216.361 91.9917 216.368 92.4075C215.988 110.884 215.988 110.884 222.952 127.426C217.737 136.077 208.861 141.954 199.189 144.391C193.042 145.58 186.881 145.176 181.481 141.848C178.315 139.468 177.014 136.089 176.439 132.254C176.407 132.003 176.376 131.752 176.343 131.494C176.754 131.324 177.165 131.154 177.589 130.979C178.129 130.751 178.67 130.521 179.21 130.292C179.616 130.125 179.616 130.125 180.031 129.955C182.017 129.113 182.017 129.113 183.316 127.426C183.651 126.322 183.726 125.336 183.719 124.184C183.718 123.855 183.717 123.526 183.715 123.188C183.712 122.847 183.709 122.507 183.706 122.156C183.704 121.81 183.703 121.464 183.701 121.107C183.697 120.255 183.691 119.403 183.683 118.55C184.056 118.514 184.429 118.478 184.813 118.441C191.616 117.723 197.549 115.298 202.767 110.784C203.203 110.422 203.639 110.06 204.075 109.698C204.37 109.446 204.665 109.195 204.969 108.935C204.848 108.447 204.727 107.959 204.602 107.456C203.494 107.959 202.708 108.537 201.827 109.375C196.709 113.96 190.09 117.006 183.186 116.83C176.375 116.175 171.421 113.114 166.873 108.223C161.874 102.083 160.328 94.0204 159.461 86.3771C159.426 86.1009 159.391 85.8247 159.355 85.5401C159.001 82.5153 159.006 79.4798 159.002 76.4385C159.002 76.1448 159.001 75.8512 159 75.5486C158.997 70.8638 159.221 66.2205 159.622 61.5536C159.646 61.2639 159.671 60.9741 159.697 60.6756C160.109 55.9437 160.109 55.9437 160.562 54.5735C161.202 54.313 161.202 54.313 162.036 54.1387C162.341 54.0704 162.647 54.0021 162.962 53.9317C163.29 53.8613 163.618 53.7909 163.957 53.7183C167.077 52.9882 169.84 52.0421 172.673 50.5056C173.09 50.2849 173.508 50.0642 173.937 49.8368C177.286 48.0175 180.301 45.8331 183.183 43.3267C184.713 42 184.713 42 185.518 42Z" fill="#FDFDF9"/>
<path d="M100.47 108.062C101.2 108.795 101.2 108.795 101.382 110.148C101.322 112.07 100.347 113.014 99.0103 114.299C97.8344 115.24 96.6073 116.091 95.3614 116.936C95.0416 117.157 94.7217 117.378 94.3922 117.606C91.9837 119.267 91.9837 119.267 90.997 119.879C90.3324 120.28 90.3324 120.28 89.5232 120.903C89.5232 121.266 89.5232 121.629 89.5232 122.004C91.0868 121.801 92.0256 121.264 93.2975 120.342C93.662 120.082 94.0266 119.822 94.4022 119.554C94.7789 119.28 95.1557 119.006 95.5438 118.724C96.2914 118.184 97.0402 117.646 97.7902 117.109C98.2858 116.75 98.2858 116.75 98.7915 116.383C100.114 115.523 101.095 115.013 102.682 115.078C103.933 115.453 104.469 115.789 105.213 116.867C105.129 117.904 104.993 118.522 104.338 119.336C102.12 121.209 99.7319 122.756 97.2771 124.297C96.465 124.81 95.6538 125.324 94.8426 125.839C94.4866 126.063 94.1307 126.286 93.764 126.517C92.0793 127.492 92.0793 127.492 91.074 129.043C91.0439 129.263 91.0138 129.482 90.9828 129.708C92.9032 128.936 94.6014 128.006 96.342 126.888C96.5953 126.728 96.8486 126.568 97.1095 126.404C98.3057 125.644 99.4854 124.871 100.638 124.046C101.011 123.78 101.385 123.515 101.77 123.242C102.094 123.002 102.418 122.763 102.752 122.517C104.017 121.869 104.906 121.871 106.308 122.004C107.22 122.6 107.22 122.6 107.768 123.471C107.804 125.145 107.214 126.051 106.149 127.294C105.116 128.343 103.918 129.138 102.705 129.961C102.155 130.342 101.605 130.723 101.056 131.106C100.778 131.298 100.5 131.49 100.214 131.689C98.8761 132.626 97.5629 133.596 96.2508 134.57C96.014 134.745 95.7773 134.92 95.5333 135.101C94.9891 135.504 94.4454 135.908 93.9019 136.312C94.0223 136.676 94.1427 137.039 94.2667 137.413C96.1616 136.813 97.5981 135.633 99.1699 134.455C101.262 132.918 103.354 131.384 105.51 129.938C105.903 129.67 106.297 129.402 106.703 129.126C107.768 128.608 107.768 128.608 108.775 128.639C109.592 128.974 109.592 128.974 110.322 130.075C110.322 133.1 108.429 134.924 106.468 137C104.511 138.926 102.298 140.542 100.105 142.183C100.308 143.735 100.834 144.671 101.724 145.943C102.921 147.761 103.439 149.208 103.754 151.355C104.235 151.355 103.787 151.145 104.5 151.5C104.432 150.842 105.146 150.697 105.076 150.025C105.038 149.655 105.038 149.655 105 149.277C104.827 148.177 104.827 148.177 104.119 146.218C106.647 146.218 109.176 146.218 111.781 146.218C111.601 147.437 111.42 148.655 111.234 149.91C111.085 151.032 110.946 152.155 110.81 153.279C110.711 154.093 110.6 154.905 110.486 155.716C110.112 160.548 112.48 164.998 114.335 169.333C114.511 169.746 114.687 170.159 114.867 170.585C118.253 178.507 121.861 186.365 126.012 193.914C126.373 193.914 126.734 193.914 127.106 193.914C126.84 192.166 126.144 190.913 125.268 189.4C124.382 186.902 125.795 184.24 126.696 181.899C126.889 181.379 126.889 181.379 127.085 180.848C127.212 180.516 127.338 180.183 127.469 179.841C127.64 179.39 127.64 179.39 127.815 178.929C128.21 178.119 128.626 177.63 129.296 177.037C135.918 179.68 142.067 182.668 147.54 187.31C147.741 187.476 147.941 187.641 148.148 187.811C152.231 191.189 152.231 191.189 152.999 193.853C153.034 195.772 152.011 197.434 151.064 199.038C150.821 199.45 150.579 199.862 150.329 200.286C150.068 200.723 149.808 201.16 149.547 201.596C149.415 201.818 149.284 202.04 149.148 202.269C147.129 205.668 145.054 209.014 142.797 212.259C142.647 212.476 142.498 212.692 142.344 212.915C132.774 226.779 132.774 226.779 124.917 228.769C120.23 229.419 116.691 228.759 112.795 225.992C100.026 215.75 97.813 193.28 95.0065 178.286C94.9605 178.04 94.9144 177.794 94.867 177.541C94.4403 175.261 94.0153 172.981 93.5932 170.701C93.3586 169.434 93.122 168.168 92.8842 166.902C92.7542 166.207 92.6264 165.512 92.4987 164.816C91.4227 158.844 91.4227 158.844 89.1811 153.258C86.1273 147.402 85.4242 140.402 84.2855 133.956C84.1398 133.144 83.9887 132.334 83.8286 131.525C83.0229 127.421 82.2908 121.842 84.2552 117.988C87.1394 113.843 91.5437 111.607 95.9087 109.346C96.1533 109.217 96.398 109.088 96.65 108.956C97.9591 108.298 98.998 107.826 100.47 108.062Z" fill="#FDFEFA"/>
<path d="M49.3607 203.007C49.8266 203.004 49.8266 203.004 50.3019 203.001C51.3221 202.997 52.3416 203.006 53.3617 203.015C54.0735 203.016 54.7854 203.016 55.4973 203.015C56.9861 203.016 58.4748 203.023 59.9636 203.034C61.8709 203.049 63.7779 203.05 65.6852 203.048C67.1539 203.046 68.6226 203.051 70.0913 203.057C70.7946 203.06 71.4979 203.061 72.2011 203.061C73.1837 203.061 74.166 203.069 75.1485 203.079C75.4383 203.078 75.728 203.077 76.0266 203.076C77.6813 203.101 78.7471 203.296 80.064 204.333C82.4817 206.904 82.6955 209.139 82.6812 212.535C82.6825 212.913 82.6838 213.292 82.6852 213.681C82.6876 214.5 82.6885 215.319 82.6881 216.138C82.6877 217.436 82.6924 218.733 82.6985 220.031C82.7152 223.719 82.7241 227.408 82.7265 231.096C82.7283 233.355 82.737 235.613 82.75 237.871C82.7536 238.73 82.7544 239.589 82.7525 240.448C82.7499 241.651 82.7562 242.853 82.7643 244.056C82.7614 244.409 82.7584 244.762 82.7554 245.125C82.7819 247.332 83.1281 249.055 84.3927 250.887C85.2869 251.677 85.2869 251.677 86.2865 252.17C86.7692 252.437 86.7692 252.437 87.2616 252.709C87.5053 252.834 87.749 252.958 88 253.087C87.4593 254.546 86.6483 255.079 85.3622 255.882C84.8509 256.207 84.8509 256.207 84.3293 256.538C82.62 257.513 81.3305 258.089 79.3425 257.852C78.3778 257.452 77.4913 256.941 76.592 256.409C74.6439 255.209 74.6439 255.209 72.4887 254.553C71.5909 254.994 70.7832 255.442 69.9411 255.974C67.6924 257.355 65.8095 258.398 63.1098 257.852C61.9179 257.302 60.7891 256.637 59.6804 255.931C58.455 255.184 57.8488 254.917 56.3771 254.944C55.1939 255.281 54.4422 255.65 53.4603 256.386C51.4272 257.889 49.7177 258.121 47.2377 257.852C45.4389 257.27 44.3565 256.115 43.2852 254.58C42.0703 252.125 42.0805 249.733 42.0827 247.038C42.0803 246.621 42.0779 246.203 42.0754 245.773C42.0686 244.397 42.0671 243.021 42.0664 241.644C42.064 240.685 42.0616 239.726 42.0591 238.767C42.0545 236.758 42.0534 234.749 42.0539 232.741C42.0543 230.424 42.0467 228.108 42.0353 225.791C42.0247 223.556 42.0221 221.32 42.0225 219.085C42.0217 218.137 42.0185 217.189 42.0129 216.241C42.0058 214.914 42.0079 213.588 42.0123 212.261C42.0082 211.871 42.0042 211.481 42 211.08C42.0218 208.459 42.3454 206.43 44.1751 204.487C45.8163 203.117 47.2924 202.972 49.3607 203.007Z" fill="#FEFEFA"/>
<path d="M18.5542 128.427C20.0664 128.518 21.152 128.753 22.408 129.575C24.6031 130.752 26.5968 129.804 28.8769 129.139C36.1043 127.284 45.2468 127.51 51.8894 131.196C55.1319 133.375 56.6132 136.171 57.8264 139.813C58.269 144.553 58.034 149.091 55.0966 153.012C54.378 153.878 53.6852 154.591 52.8184 155.314C51.6551 156.695 51.6076 157.798 51.4951 159.554C51.2471 162.557 51.2471 162.557 50.8528 162.951C49.997 162.988 49.1401 162.999 48.2836 162.997C47.8143 162.998 47.3449 162.999 46.8614 163C45.7144 162.951 45.7144 162.951 45.3474 162.584C45.229 161.637 45.1592 160.689 45.0836 159.738C45.0677 158.923 45.0677 158.923 44.6133 158.544C43.5814 158.511 42.5585 158.502 41.5265 158.508C41.063 158.509 41.063 158.509 40.59 158.51C39.5989 158.512 38.6079 158.516 37.6168 158.521C36.9465 158.523 36.2763 158.524 35.606 158.526C33.9594 158.53 32.3128 158.536 30.6662 158.544C30.6704 158.831 30.6747 159.119 30.6791 159.415C30.6824 159.786 30.6857 160.158 30.6891 160.541C30.6934 160.912 30.6976 161.282 30.702 161.664C30.6662 162.584 30.6662 162.584 30.2991 162.951C29.3094 162.978 28.3293 162.985 27.34 162.974C27.0615 162.973 26.7831 162.971 26.4962 162.969C25.8064 162.965 25.1165 162.958 24.4267 162.951C23.9602 162.018 24.0791 161.253 24.1025 160.23C24.1099 158.292 24.1088 156.857 22.8611 155.307C21.8243 154.491 20.7515 153.768 19.6553 153.035C19.1834 152.55 18.7226 152.054 18.2789 151.543C17.3071 150.517 17.2265 150.469 15.7097 150.418C15.3161 150.433 14.9224 150.448 14.5169 150.464C13.1601 148.789 12.9982 147.19 13.0029 145.093C13.0014 144.449 13.0014 144.449 13 143.793C13.0487 142.751 13.0487 142.751 13.4158 142.384C13.8624 142.384 14.309 142.384 14.7692 142.384C15.8472 142.266 16.2468 142.126 17.0101 141.335C18.8214 138.663 19.7493 136.085 19.2883 132.835C18.8219 132.085 18.3361 131.347 17.8201 130.631C17.925 129.057 17.925 129.057 18.5542 128.427Z" fill="#FDFDF9"/>
<path d="M89.5498 91.0011C89.8028 91.0026 90.0558 91.0041 90.3165 91.0057C90.5833 91.0044 90.85 91.0031 91.1248 91.0018C92.0091 90.9985 92.8932 91.0007 93.7774 91.0031C94.3907 91.0026 95.004 91.0019 95.6173 91.001C96.9038 90.9999 98.1903 91.0015 99.4768 91.0049C101.127 91.0091 102.777 91.0067 104.427 91.0023C105.694 90.9997 106.961 91.0005 108.228 91.0024C108.837 91.0029 109.445 91.0023 110.053 91.0006C110.904 90.9987 111.754 91.0016 112.604 91.0057C112.857 91.0042 113.109 91.0027 113.369 91.0011C114.671 91.0128 115.197 91.071 116.312 91.8354C116.604 92.6941 116.604 92.6941 116.833 93.8055C116.923 94.2343 117.013 94.663 117.106 95.1048C117.203 95.5906 117.3 96.0764 117.397 96.5623C117.503 97.08 117.61 97.5977 117.717 98.1153C118.09 99.9388 118.452 101.765 118.814 103.591C118.882 103.938 118.951 104.286 119.022 104.644C120.049 109.829 121.057 115.018 122.056 120.209C122.466 122.343 122.88 124.476 123.294 126.609C123.616 128.268 123.936 129.927 124.255 131.586C124.407 132.374 124.56 133.161 124.713 133.949C124.925 135.04 125.135 136.132 125.344 137.224C125.407 137.545 125.469 137.865 125.534 138.196C125.834 139.776 126.104 141.281 125.96 142.898C124.978 143.908 124.408 143.733 123.032 143.75C122.567 143.757 122.102 143.764 121.623 143.772C121.114 143.776 120.604 143.781 120.095 143.785C119.575 143.792 119.055 143.799 118.536 143.806C117.167 143.825 115.798 143.84 114.43 143.853C113.033 143.868 111.637 143.887 110.241 143.905C107.5 143.941 104.76 143.972 102.02 144C101.666 143.273 101.666 143.273 101.305 142.531C101.526 142.353 101.746 142.174 101.973 141.991C107.789 137.689 107.789 137.689 111.073 131.442C111.097 129.973 111.074 129.149 110.327 127.859C109.589 127.163 108.989 126.798 108.094 126.367C108.132 126.123 108.17 125.879 108.21 125.628C108.493 123.588 108.493 123.588 108.049 121.614C107.305 120.772 106.574 120.273 105.593 119.754C105.631 119.511 105.669 119.267 105.709 119.015C105.979 116.998 105.979 116.998 105.615 115.025C104.576 113.924 103.381 113.37 102.02 112.775C102.036 112.421 102.053 112.066 102.07 111.701C102.083 111.237 102.096 110.773 102.109 110.295C102.125 109.835 102.142 109.375 102.159 108.9C102.122 107.623 102.122 107.623 101.393 106.749C100.249 105.912 99.5446 105.85 98.1616 105.893C95.7744 106.455 93.6617 107.857 91.5652 109.123C90.9426 109.469 90.9426 109.469 89.8706 109.836C89.5197 107.804 89.17 105.772 88.8216 103.739C88.7031 103.049 88.5843 102.359 88.465 101.669C88.2929 100.673 88.122 99.6757 87.9514 98.6789C87.8986 98.3745 87.8457 98.0702 87.7912 97.7566C87.5397 96.2793 87.3066 94.7994 87.1097 93.3134C87.0735 93.047 87.0373 92.7805 87 92.5061C87.0294 90.8743 88.2921 91.0124 89.5498 91.0011Z" fill="#CFEB8F"/>
<path d="M104.112 21.1844C105.303 21.9529 105.303 21.9529 105.91 23.0476C106.184 24.9922 105.834 26.2435 104.831 27.8919C102.542 30.5338 99.7748 32.7131 97.007 34.7857C96.1636 35.4205 95.324 36.0576 94.4932 36.7102C93.5671 37.4212 92.6017 38.0382 91.6173 38.6589C86.0218 42.355 84.2972 46.4877 82.3704 52.9052C82.0913 53.7731 81.8101 54.6401 81.5266 55.5064C80.994 57.143 80.471 58.7822 79.9585 60.4256C77.6426 67.8229 77.6426 67.8229 74.9734 69.2547C74.3798 69.5007 73.7862 69.7466 73.1747 70C73.1747 63.6055 73.1747 57.2111 73.1747 50.6228C71.4509 50.9799 70.7874 51.3031 69.3919 52.304C69.0132 52.5732 68.6346 52.8424 68.2445 53.1197C67.8493 53.4052 67.4542 53.6908 67.0592 53.9766C66.2967 54.5225 65.5341 55.0683 64.7715 55.6141C63.6142 56.4425 62.4575 57.2714 61.3049 58.1069C58.2123 60.3115 55.5926 61.8103 51.7382 61.6957C49.5748 61.2259 48.1107 59.795 46.505 58.3108C45.7545 57.63 44.9836 56.981 44.2063 56.3332C41.973 54.4671 41.973 54.4671 40.9631 53.6054C40.7404 53.4164 40.5177 53.2274 40.2883 53.0327C39.7195 52.486 39.7195 52.486 39 51.3681C40.0068 50.4121 40.6651 49.9082 42.0479 49.8222C44.5493 50.0147 47.0212 50.5034 49.477 51.0217C51.9544 51.5201 53.1591 51.2482 55.2642 49.8087C55.5061 49.6392 55.7481 49.4698 55.9974 49.2953C56.5447 48.9203 57.0923 48.5458 57.6401 48.1715C58.0868 47.865 58.0868 47.865 58.5424 47.5522C60.3136 46.3454 62.1023 45.1669 63.8891 43.9852C64.4651 43.6037 64.4651 43.6037 65.0528 43.2144C66.2011 42.454 67.3496 41.6941 68.4982 40.9342C68.8403 40.7077 69.1824 40.4812 69.5348 40.2479C73.9567 37.3214 78.395 34.4234 82.8482 31.5484C84.3455 30.5816 85.8404 29.6108 87.3336 28.6371C99.5546 20.6761 99.5546 20.6761 104.112 21.1844Z" fill="#FDFDF9"/>
<path d="M105.63 21.3705C107.116 22.3747 107.75 23.007 108.09 24.7692C108.149 25.0622 108.208 25.3553 108.268 25.6571C108.309 25.8801 108.35 26.103 108.392 26.3326C108.139 26.4559 108.637 26.213 108.392 26.3326C106.93 30.0961 105.839 32.399 102.451 34.6709C101.86 35.1151 101.27 35.5595 100.683 36.0081C98.7217 37.5067 96.7266 38.9376 94.6627 40.3C93.4029 41.1952 92.7133 42.0003 92.0549 43.3716C91.8099 43.7305 91.5648 44.0894 91.3124 44.4592C91.5574 44.4592 91.8025 44.4592 92.0549 44.4592C91.9324 45.0574 91.8099 45.6556 91.6837 46.2719C91.4386 46.2719 91.1936 46.2719 90.9411 46.2719C90.9411 46.6308 90.9411 46.9897 90.9411 47.3595C89.8272 47.3595 88.7134 47.3595 87.5995 47.3595C87.8407 47.0758 88.0819 46.7921 88.3305 46.4999C88.6406 46.133 88.9508 45.7662 89.2703 45.3882C89.5804 45.0223 89.8906 44.6564 90.2101 44.2794C90.9793 43.5166 90.9793 43.5166 90.9411 43.0091C87.992 44.8031 86.8898 46.5772 85.8359 49.7612C85.6282 50.3396 85.6282 50.3396 85.4164 50.9297C85.0208 52.0328 84.6376 53.1392 84.2579 54.2476C83.9261 55.2028 83.5857 56.153 83.2369 57.1025C83.1163 57.453 82.9957 57.8035 82.8714 58.1646C82.2645 59.1925 81.6891 59.3637 80.545 59.6855C80.841 54.4187 82.9858 46.5556 86.9062 42.7259C88.2333 41.6476 89.6628 40.7639 91.153 39.9168C92.7725 38.9597 94.2571 37.821 95.7678 36.7101C96.3562 36.2879 96.945 35.8664 97.5343 35.4455C102.5 32.1297 102.5 32.1297 105.793 27.4202C106.022 25.6264 106.022 25.6264 105.178 24.0966C103.77 23.0222 102.53 23.1679 100.796 23.2299C98.4443 23.5919 96.6304 24.7366 94.654 25.9701C94.1345 26.2858 93.6148 26.6011 93.0948 26.9161C91.9112 27.6377 90.733 28.3671 89.5575 29.1012C87.4675 30.4058 85.3646 31.6895 83.2601 32.9715C82.8875 33.1987 82.515 33.426 82.1312 33.6601C80.2091 34.8325 78.286 36.0034 76.3623 37.1732C72.8643 39.3015 69.3707 41.434 65.9172 43.6306C64.3187 44.6471 62.7145 45.6542 61.1061 46.6556C60.8992 46.7845 60.6922 46.9135 60.4789 47.0463C59.4502 47.687 58.421 48.327 57.3912 48.966C57.0133 49.2013 56.6354 49.4366 56.246 49.6791C55.7062 50.0136 55.7062 50.0136 55.1554 50.3549C54.3239 50.8939 53.5627 51.4642 52.7884 52.0766C51.3114 52.9611 50.3372 52.905 48.7072 52.5935C48.4488 52.5531 48.1904 52.5128 47.9242 52.4712C47.1616 52.3495 46.4031 52.2134 45.6441 52.0724C45.243 52.0009 44.8419 51.9294 44.4287 51.8557C43.7528 51.7336 43.0769 51.6114 42.4011 51.4889C40.657 51.1953 39.7494 51.0639 38.2647 52.0724C37.8742 52.4313 37.8742 52.4313 37.4757 52.7974C39.4455 54.5442 41.4414 56.2439 43.544 57.8375C44.2405 58.3745 44.9199 58.933 45.586 59.5057C47.916 61.4185 49.5195 62.2219 52.5868 62.117C55.9725 61.4089 58.6949 59.5014 61.5166 57.6236C61.909 57.3664 62.3013 57.1092 62.7056 56.8441C64.3717 55.7487 66.0296 54.6464 67.653 53.4913C67.873 53.336 68.0931 53.1807 68.3198 53.0207C68.8731 52.6263 69.4207 52.2243 69.9677 51.8217C70.8916 51.3473 70.8916 51.3473 72.748 51.7098C72.748 54.8204 72.748 57.9309 72.748 61.1356C72.6255 61.1356 72.503 61.1356 72.3767 61.1356C72.2542 58.8626 72.1317 56.5895 72.0054 54.2476C71.8829 54.2476 71.7604 54.2476 71.6342 54.2476C71.5116 56.5206 71.3891 58.7937 71.2629 61.1356C71.1403 61.1356 71.0178 61.1356 70.8916 61.1356C70.8916 58.8626 70.8916 56.5895 70.8916 54.2476C70.1928 54.7153 69.494 55.1831 68.7741 55.6651C68.0812 56.1274 67.3879 56.5893 66.6947 57.0511C66.2205 57.3673 65.7467 57.684 65.2733 58.0013C54.5135 65.2108 54.5135 65.2108 48.9856 64.3984C46.9776 63.4484 45.3315 62.187 43.6252 60.7958C43.1071 60.3768 42.5889 59.9581 42.0704 59.5397C41.6727 59.218 41.6727 59.218 41.2669 58.8898C40.4376 58.2287 39.5973 57.5839 38.752 56.9425C38.4799 56.7338 38.2078 56.5251 37.9274 56.3101C37.4041 55.9093 36.878 55.512 36.3489 55.1186C34.583 53.7538 34.583 53.7538 34.1559 52.4802C34.1487 52.226 34.1416 51.9718 34.1342 51.7098C38.5376 48.5406 38.5376 48.5406 41.1422 48.7416C41.9043 48.8632 42.6625 49.0087 43.4163 49.1721C44.1387 49.3192 44.8611 49.4662 45.584 49.6107C46.2816 49.754 46.976 49.9116 47.6702 50.0699C50.5901 50.4912 52.3005 49.6222 54.6246 48.0619C54.8984 47.8837 55.1722 47.7055 55.4543 47.5219C56.2716 46.9888 57.0845 46.45 57.8965 45.9093C58.7542 45.3415 59.613 44.7754 60.4723 44.21C60.8203 43.9768 61.1682 43.7436 61.5267 43.5033C62.352 43.0091 62.352 43.0091 63.0946 43.0091C62.0676 41.8454 60.7471 41.1574 59.4034 40.3977C59.1501 40.2524 58.8968 40.1071 58.6358 39.9573C57.8256 39.4927 57.0142 39.0301 56.2025 38.5681C46.5983 33.099 46.5983 33.099 46.1073 31.6995C46.077 31.4837 46.0466 31.2679 46.0153 31.0455C46.9211 30.4212 47.833 29.813 48.7536 29.2102C49.1319 28.9463 49.1319 28.9463 49.5179 28.6771C52.2706 26.9062 54.6483 27.558 57.7414 28.1785C58.4864 28.3385 59.2309 28.5008 59.9749 28.665C60.3737 28.7513 60.7726 28.8376 61.1836 28.9265C62.4476 29.2004 63.7109 29.4771 64.9742 29.754C65.8233 29.9386 66.6725 30.1229 67.5217 30.307C69.0843 30.6462 70.6466 30.9863 72.2086 31.328C72.5504 31.4024 72.8923 31.4768 73.2445 31.5534C73.895 31.6963 74.5449 31.8419 75.1941 31.9903C75.489 32.0571 75.7839 32.1238 76.0878 32.1926C76.3443 32.2518 76.6007 32.3109 76.865 32.3719C79.4556 32.8238 81.2178 31.6378 83.2601 30.2978C83.8795 29.9045 84.4993 29.5118 85.1194 29.1196C85.4541 28.9065 85.7888 28.6934 86.1336 28.4738C87.9663 27.3168 89.8165 26.1877 91.6719 25.0657C92.2979 24.6861 92.9218 24.3031 93.5456 23.9202C97.3631 21.609 101.103 19.742 105.63 21.3705Z" fill="#0A2017"/>
<path d="M253.128 208C254.319 208.974 254.887 210.244 255.545 211.586C256.395 213.307 257.258 215.012 258.191 216.691C258.36 217.001 258.528 217.311 258.702 217.631C259.028 218.231 259.362 218.828 259.703 219.42C261.311 222.425 261.306 225.145 260.332 228.382C259.923 229.643 259.473 230.889 259.021 232.135C258.826 232.689 258.632 233.242 258.438 233.796C258.015 235.001 257.587 236.204 257.156 237.407C256.376 239.582 255.607 241.762 254.837 243.941C253.416 247.963 251.985 251.982 250.55 256C250.307 256 250.064 256 249.813 256C249.678 255.682 249.542 255.364 249.403 255.036C248.892 253.836 248.38 252.637 247.869 251.438C247.649 250.923 247.429 250.407 247.21 249.892C246.996 249.391 246.783 248.89 246.569 248.39C246.358 247.894 246.147 247.398 245.936 246.902C245.327 245.474 244.663 244.09 243.957 242.704C243.049 240.76 242.941 239.078 243.022 236.962C243.034 236.426 243.034 236.426 243.046 235.878C243.077 234.765 243.126 233.654 243.183 232.541C243.2 232.202 243.217 231.863 243.234 231.514C243.37 229.077 243.626 226.663 243.92 224.241C243.966 223.817 244.011 223.393 244.058 222.956C245.034 214.337 245.034 214.337 247.472 212.132C248.458 211.393 249.478 210.78 250.55 210.165C251.09 209.734 251.622 209.293 252.138 208.835C252.465 208.559 252.792 208.284 253.128 208Z" fill="#FDFDF9"/>
<path d="M86.6995 102C87.064 102.123 87.4286 102.247 87.8042 102.374C88.0472 102.251 88.2903 102.127 88.5407 102C88.7282 102.817 89.4875 106.348 89.669 107.167C90.8182 114.637 89.4704 108.243 89.576 108.713C89.8126 110.085 89.9074 108.611 89.8651 110C90.0621 109.889 90.259 109.777 90.4619 109.663C91.3523 109.159 92.0231 108.51 92.9136 108.007C93.2235 107.832 93.5335 107.657 93.8529 107.476C94.1495 107.309 94.4462 107.141 94.7519 106.968C95.0257 106.814 95.2996 106.659 95.5817 106.5C97.2835 105.551 98.7665 105.488 100.693 105.74C101.843 106.394 101.843 106.394 102.534 107.61C102.938 111.277 102.938 111.277 102.166 112.846C102.492 112.938 102.819 113.031 103.155 113.126C104.495 113.64 105.257 114.004 106.216 115.089C106.658 116.77 106.702 118.282 106.216 119.951C106.566 120.167 106.915 120.383 107.275 120.606C108.397 121.426 108.718 121.679 109.162 122.943C109.154 123.907 109.154 123.907 109.024 124.907C108.983 125.24 108.942 125.574 108.9 125.917C108.865 126.17 108.83 126.423 108.794 126.683C109.075 126.837 109.356 126.991 109.646 127.15C110.684 127.837 111.188 128.18 111.74 129.301C112.059 131.101 111.927 132.578 111.003 134.163C108.956 137.096 106.569 139.443 103.792 141.663C103.076 142.248 102.428 142.835 101.797 143.512C101.919 143.759 102.04 144.006 102.166 144.26C102.787 144.274 102.787 144.274 103.421 144.289C104.962 144.324 106.502 144.361 108.043 144.399C108.709 144.416 109.375 144.431 110.041 144.446C111 144.468 111.959 144.492 112.918 144.516C113.215 144.522 113.511 144.528 113.817 144.535C115.253 144.573 116.597 144.657 118 145.008C116.816 146.211 116.111 146.493 114.41 146.551C114.015 146.535 113.62 146.52 113.213 146.504C112.585 150.118 112.284 153.691 112.108 157.35C112.351 157.473 111.858 157.249 112.108 157.376C111.865 157.376 112.359 157.376 112.108 157.376C112.414 160.726 113.433 163.783 114.801 166.797C115.505 168.35 116.038 169.925 116.527 171.561C115.798 171.561 115.069 171.561 114.318 171.561C113.444 169.486 112.583 167.407 111.731 165.323C111.445 164.633 111.149 163.948 110.848 163.265C108.712 158.101 110.157 152.207 111.003 146.878C108.695 146.878 106.386 146.878 104.007 146.878C104.371 147.989 104.736 149.1 105.112 150.244C104.996 151.389 104.996 151.389 104.743 152.114C104.257 152.114 103.771 152.114 103.27 152.114C103.187 151.759 103.103 151.404 103.017 151.039C102.368 148.739 101.338 146.533 99.8181 144.704C99.2197 143.886 99.2197 143.886 99.2643 142.988C99.6772 141.748 100.188 141.381 101.222 140.614C106.433 136.755 106.433 136.755 109.553 131.241C109.624 130.079 109.624 130.079 109.116 129.301C108.438 128.855 108.438 128.855 107.629 128.978C106.206 129.418 105.11 130.23 103.915 131.101C103.662 131.281 103.41 131.461 103.15 131.646C102.612 132.031 102.074 132.417 101.538 132.804C100.665 133.434 99.7904 134.06 98.9147 134.686C97.4185 135.755 95.9249 136.828 94.4326 137.902C93.9465 137.656 93.4604 137.409 92.9596 137.154C93.4655 135.944 93.9815 135.334 95.0367 134.58C95.3072 134.385 95.5777 134.189 95.8564 133.988C96.146 133.783 96.4357 133.579 96.7341 133.368C97.1777 133.047 97.1777 133.047 97.6304 132.721C99.0314 131.71 100.441 130.714 101.858 129.726C102.09 129.562 102.322 129.399 102.561 129.23C103.185 128.791 103.813 128.357 104.441 127.923C105.566 126.985 106.245 126.102 106.953 124.813C106.895 123.52 106.753 123.114 105.848 122.195C103.777 121.967 102.692 122.372 100.989 123.546C100.784 123.685 100.58 123.823 100.369 123.966C99.7214 124.406 99.0793 124.855 98.4372 125.304C98.0036 125.601 97.5697 125.898 97.1354 126.194C96.3355 126.74 95.5386 127.289 94.7431 127.842C92.0439 129.675 92.0439 129.675 90.3819 129.675C90.4179 128.846 90.4179 128.846 90.7501 127.805C91.5356 127.15 92.2607 126.631 93.1207 126.099C93.6214 125.773 94.1219 125.448 94.6224 125.123C94.889 124.952 95.1555 124.782 95.4301 124.606C96.9115 123.656 98.377 122.682 99.8411 121.704C100.123 121.521 100.405 121.337 100.695 121.148C102.185 120.156 103.386 119.252 104.375 117.707C104.375 116.64 104.098 116.311 103.385 115.534C102.166 114.898 101.638 115.061 100.324 115.463C96.9852 116.967 93.852 119.426 91.0278 121.755C90.3819 122.195 90.3819 122.195 89.3692 122.078C89.0958 121.993 88.8224 121.909 88.5407 121.821C88.6814 120.947 88.7789 120.451 89.4215 119.831C89.6382 119.688 89.855 119.545 90.0784 119.398C90.3206 119.234 90.5629 119.07 90.8124 118.902C91.0729 118.731 91.3333 118.561 91.6017 118.385C92.1392 118.022 92.6762 117.657 93.2128 117.292C93.4805 117.111 93.7482 116.93 94.024 116.744C95.1408 115.978 96.2264 115.179 97.3094 114.365C97.6536 114.107 97.9977 113.849 98.3523 113.583C99.4066 112.687 100.228 111.98 100.445 110.562C100.525 109.158 100.525 109.158 99.9562 107.984C97.3662 108.073 95.5739 108.981 93.3508 110.274C92.8855 110.533 92.8855 110.533 92.4108 110.797C88.2516 113.165 84.3714 115.869 83.0171 120.699C82.1495 125.699 83.3177 130.972 84.1908 135.892C84.2714 136.35 84.2714 136.35 84.3535 136.816C84.9644 140.239 85.6791 143.623 86.5441 146.989C86.6186 147.279 86.693 147.569 86.7697 147.868C87.4634 150.49 88.3972 152.993 89.6206 155.41C90.8859 158.039 91.373 160.779 91.9009 163.637C92.0066 164.194 92.1126 164.751 92.2189 165.307C92.4561 166.553 92.6908 167.799 92.9242 169.045C93.2951 171.021 93.6754 172.995 94.057 174.969C94.3985 176.736 94.7379 178.503 95.077 180.271C95.2454 181.147 95.4142 182.023 95.5836 182.9C95.8229 184.14 96.0595 185.38 96.2953 186.621C96.3677 186.993 96.4401 187.366 96.5146 187.749C97.3097 191.966 97.3097 191.966 96.642 194C96.2774 193.877 95.9129 193.753 95.5373 193.626C95.1849 192.662 95.1849 192.662 94.8698 191.289C94.8095 191.027 94.7491 190.765 94.6869 190.495C94.4722 189.545 94.2675 188.594 94.0643 187.642C93.985 187.276 93.9058 186.909 93.8241 186.531C92.453 180.14 91.2828 173.718 90.1786 167.275C89.2568 160.83 89.2568 160.83 86.9296 154.849C85.9345 152.942 85.2266 151.117 84.677 149.036C84.5993 148.746 84.5215 148.456 84.4414 148.157C83.5713 144.82 82.9641 141.44 82.3726 138.043C82.2602 137.414 82.1476 136.785 82.0346 136.157C81.9265 135.55 81.8186 134.942 81.711 134.335C81.6623 134.061 81.6135 133.786 81.5634 133.504C79.3935 121.02 79.3935 121.02 82.1238 116.169C82.8144 115.241 83.5305 114.601 84.49 113.967C84.8014 113.651 85.1128 113.335 85.4337 113.009C86.193 112.238 86.9406 111.615 87.8042 110.976C87.7245 110.547 87.6447 110.118 87.5625 109.677C87.4589 109.105 87.8307 111.134 87.7273 110.562C87.6746 110.281 87.3061 107.366 87.2518 107.076C86.9415 105.342 86.6442 103.762 86.6995 102Z" fill="#0A2219"/>
<path d="M152.466 198C155.262 202.284 154.529 210.039 154.638 215.009C154.645 215.345 154.653 215.68 154.661 216.026C154.786 221.603 154.897 227.18 155 232.758C153.632 233.163 152.84 233.021 151.46 232.62C151.046 232.501 150.631 232.381 150.205 232.258C149.763 232.126 149.322 231.993 148.867 231.856C148.417 231.723 147.966 231.589 147.501 231.451C144.647 230.587 141.832 229.648 139.046 228.575C138.732 228.455 138.419 228.335 138.095 228.211C136.711 227.658 135.738 227.237 134.724 226.102C134.485 225.858 134.246 225.614 134 225.362C134.37 224.931 134.739 224.5 135.109 224.068C135.342 223.796 135.575 223.523 135.815 223.242C136.257 222.727 136.703 222.214 137.153 221.705C139.798 218.694 142.118 215.447 144.209 212.013C144.806 211.033 145.418 210.063 146.034 209.095C147.352 207.02 148.636 204.926 149.886 202.807C150.019 202.581 150.153 202.355 150.291 202.123C151.079 200.777 151.796 199.411 152.466 198Z" fill="#103D1E"/>
<path d="M49.3607 203.007C49.8266 203.004 49.8266 203.004 50.3019 203.001C51.3221 202.997 52.3416 203.006 53.3617 203.015C54.0735 203.016 54.7854 203.016 55.4973 203.015C56.9861 203.016 58.4748 203.023 59.9636 203.034C61.8709 203.049 63.7779 203.05 65.6852 203.048C67.1539 203.046 68.6226 203.051 70.0913 203.057C70.7946 203.06 71.4979 203.061 72.2011 203.061C73.1837 203.061 74.166 203.069 75.1485 203.079C75.4383 203.078 75.728 203.077 76.0266 203.076C77.6813 203.101 78.7471 203.296 80.064 204.333C82.4817 206.904 82.6955 209.139 82.6812 212.535C82.6825 212.913 82.6838 213.292 82.6852 213.681C82.6876 214.5 82.6885 215.319 82.6881 216.138C82.6877 217.436 82.6924 218.733 82.6985 220.031C82.7152 223.719 82.7241 227.408 82.7265 231.096C82.7283 233.355 82.737 235.613 82.75 237.871C82.7536 238.73 82.7544 239.589 82.7525 240.448C82.7499 241.651 82.7562 242.853 82.7643 244.056C82.7614 244.409 82.7584 244.762 82.7554 245.125C82.7819 247.332 83.1281 249.055 84.3927 250.887C85.2869 251.677 85.2869 251.677 86.2865 252.17C86.7692 252.437 86.7692 252.437 87.2616 252.709C87.5053 252.834 87.749 252.958 88 253.087C87.4593 254.546 86.6483 255.079 85.3622 255.882C84.8509 256.207 84.8509 256.207 84.3293 256.538C82.62 257.513 81.3305 258.089 79.3425 257.852C78.3778 257.452 77.4913 256.941 76.592 256.409C74.6439 255.209 74.6439 255.209 72.4887 254.553C71.5909 254.994 70.7832 255.442 69.9411 255.974C67.6924 257.355 65.8095 258.398 63.1098 257.852C61.9179 257.302 60.7891 256.637 59.6804 255.931C58.455 255.184 57.8488 254.917 56.3771 254.944C55.1939 255.281 54.4422 255.65 53.4603 256.386C51.4272 257.889 49.7177 258.121 47.2377 257.852C45.4389 257.27 44.3565 256.115 43.2852 254.58C42.0703 252.125 42.0805 249.733 42.0827 247.038C42.0803 246.621 42.0779 246.203 42.0754 245.773C42.0686 244.397 42.0671 243.021 42.0664 241.644C42.064 240.685 42.0616 239.726 42.0591 238.767C42.0545 236.758 42.0534 234.749 42.0539 232.741C42.0543 230.424 42.0467 228.108 42.0353 225.791C42.0247 223.556 42.0221 221.32 42.0225 219.085C42.0217 218.137 42.0185 217.189 42.0129 216.241C42.0058 214.914 42.0079 213.588 42.0123 212.261C42.0082 211.871 42.0042 211.481 42 211.08C42.0218 208.459 42.3454 206.43 44.1751 204.487C45.8163 203.117 47.2924 202.972 49.3607 203.007ZM44.3519 207.265C44.0064 208.318 43.9444 208.981 43.9405 210.075C43.9385 210.427 43.9364 210.778 43.9343 211.14C43.9339 211.525 43.9335 211.91 43.9331 212.307C43.9313 212.713 43.9295 213.119 43.9276 213.538C43.9223 214.884 43.9199 216.231 43.9179 217.578C43.9158 218.514 43.9138 219.449 43.9117 220.385C43.9084 222.098 43.9061 223.811 43.905 225.524C43.9034 228.04 43.8971 230.555 43.8866 233.071C43.8778 235.254 43.8751 237.437 43.8745 239.62C43.8734 240.546 43.8705 241.472 43.8657 242.398C43.8596 243.697 43.8603 244.995 43.8626 246.294C43.8593 246.675 43.856 247.055 43.8525 247.447C43.867 250.024 44.1359 252.467 45.63 254.623C45.9236 254.872 45.9236 254.872 46.2232 255.126C46.4143 255.3 46.6054 255.475 46.8023 255.654C48.0318 256.218 49.178 256.251 50.4843 256.019C51.4783 255.57 52.3445 254.979 53.2348 254.347C55.5303 252.724 55.5303 252.724 56.976 252.709C58.5822 253.269 59.9783 254.111 61.4308 254.995C63.0091 255.906 64.1376 256.304 65.9956 256.019C67.2802 255.429 68.4376 254.64 69.617 253.861C70.8577 253.088 71.5555 252.722 73.0411 252.707C74.7577 253.228 76.164 254.077 77.6812 255.027C78.9328 255.762 79.5576 256.023 81.0461 255.984C82.1298 255.68 82.7808 255.415 83.6487 254.714C84.0133 254.419 84.3778 254.124 84.7534 253.82C84.4856 253.57 84.2178 253.321 83.9418 253.064C81.5924 250.67 80.7083 247.801 80.6888 244.483C80.6903 244.128 80.6918 243.772 80.6933 243.406C80.692 243.027 80.6907 242.648 80.6894 242.257C80.6869 241.435 80.686 240.614 80.6865 239.792C80.6868 238.492 80.6821 237.192 80.676 235.891C80.6593 232.195 80.6504 228.498 80.6481 224.801C80.6462 222.538 80.6375 220.276 80.6245 218.013C80.621 217.151 80.6201 216.289 80.622 215.428C80.6246 214.223 80.6183 213.018 80.6102 211.814C80.6131 211.458 80.6161 211.103 80.6191 210.737C80.5942 208.666 80.3741 207.423 78.9818 205.799C77.6239 204.879 76.5428 204.952 74.9691 204.948C74.521 204.942 74.521 204.942 74.064 204.937C73.0748 204.926 72.0857 204.921 71.0965 204.917C70.4086 204.913 69.7206 204.908 69.0327 204.904C67.5893 204.896 66.1458 204.892 64.7024 204.89C62.8557 204.886 61.0094 204.868 59.1629 204.847C57.7412 204.833 56.3195 204.83 54.8978 204.828C54.2172 204.826 53.5367 204.82 52.8562 204.811C51.9019 204.798 50.9486 204.8 49.9943 204.804C49.5753 204.794 49.5753 204.794 49.1479 204.784C47.0112 204.817 45.7262 205.599 44.3519 207.265Z" fill="#062C1D"/>
<path d="M41.9943 111.727C44.0137 112.922 45.185 114.691 45.8851 116.904C46.1926 119.196 45.9277 121.084 44.5391 122.964C43.0801 124.57 41.6912 125.696 39.4915 125.995C37.0123 126.05 34.9587 125.697 33.0978 123.974C31.362 121.791 30.7683 119.673 31.0788 116.904C31.6881 114.671 32.8245 113.094 34.7804 111.853C37 110.783 39.7355 110.696 41.9943 111.727Z" fill="#FDFDF9"/>
<path d="M192 97.1096C191.926 100.264 191.233 102.931 189.062 105.305C186.641 107.517 184.659 108.058 181.391 107.995C178.416 107.666 176.274 106.177 174.422 103.881C173.449 102.445 172.703 100.915 172 99.3334C172.741 98.2215 172.741 98.2215 173.405 98.0481C173.673 98.0319 173.941 98.0157 174.218 97.9991C174.522 97.9781 174.826 97.9571 175.139 97.9355C175.469 97.9181 175.798 97.9007 176.138 97.8827C176.646 97.8494 176.646 97.8494 177.165 97.8154C178.252 97.745 179.339 97.6819 180.426 97.6192C181.508 97.5525 182.589 97.4843 183.671 97.4151C184.345 97.3726 185.018 97.3316 185.692 97.2926C191.514 96.9412 191.514 96.9412 192 97.1096Z" fill="#081C14"/>
<path d="M61.3578 29.2551C62.0312 29.3921 62.0312 29.3921 62.7181 29.5318C63.9005 29.7726 65.0827 30.0147 66.2647 30.2575C67.4753 30.5059 68.6863 30.7524 69.8972 30.9991C72.2652 31.4819 74.6328 31.9664 77 32.4523C75.4318 33.9859 73.4775 34.9891 71.5726 36.1138C70.9765 36.4723 70.9765 36.4723 70.3683 36.8381C69.984 37.0655 69.5998 37.293 69.2039 37.5273C68.6784 37.8396 68.6784 37.8396 68.1422 38.1581C67.1267 38.6664 66.4726 38.9619 65.3243 39C64.2605 38.5506 64.2605 38.5506 63.091 37.8611C62.8803 37.7388 62.6696 37.6165 62.4525 37.4905C61.7722 37.0939 61.0969 36.6902 60.4215 36.2861C59.9586 36.0143 59.4955 35.7428 59.0322 35.4718C57.7196 34.7018 56.4132 33.9228 55.1081 33.1415C54.7856 32.949 54.4632 32.7565 54.1309 32.5581C52.7463 31.7295 51.3682 30.8926 50 30.04C50.2243 29.8818 50.4487 29.7237 50.6798 29.5607C51.2118 29.1823 51.7376 28.796 52.2576 28.403C54.8418 27.3182 58.6994 28.7069 61.3578 29.2551Z" fill="#FCFCF9"/>
<path d="M118.179 90.9423C119.087 91.9815 119.295 92.8091 119.553 94.122C119.682 94.7396 119.682 94.7396 119.813 95.3696C119.962 96.3513 120.028 98.0311 119.989 99.0192C119.989 103.777 119.078 106.638 119.078 104.019C118.399 103.072 118.012 98.5635 117.784 97.4926C117.724 97.22 117.663 96.9475 117.601 96.6666C117.478 96.0921 117.355 95.5174 117.233 94.9427C117.173 94.671 117.112 94.3993 117.049 94.1194C116.97 93.7454 116.97 93.7454 116.889 93.364C116.82 93.1703 116.752 92.9766 116.682 92.777C115.586 92.2676 114.467 92.391 113.266 92.3966C112.99 92.3966 112.714 92.3965 112.429 92.3965C111.515 92.3967 110.6 92.3994 109.685 92.4021C109.052 92.4027 108.419 92.4032 107.785 92.4035C106.117 92.4048 104.448 92.4082 102.779 92.412C101.077 92.4155 99.3751 92.417 97.673 92.4187C94.3321 92.4224 90.9912 92.4282 87.6503 92.4354C87.2485 94.0175 87.8111 95.3426 87.8111 96.8334C88.2214 98.5955 88.6608 101.694 88.5974 103.5C88.4155 102.993 88.5708 104.018 88.3853 103.5C88.0215 103.5 88.8748 103.5 88.5 103.5C88.3787 103.725 88.5 111 88 110.5C87.7502 109.419 86.242 100.582 86 99.5C85.9299 99.1971 85.6726 97.8074 85.6004 97.4953C85.1942 95.6614 84.8374 93.9622 85.0779 92.0938C86.0225 90.9681 86.5768 90.4489 88.0996 90.1652C88.5469 90.1619 88.9941 90.1586 89.4549 90.1552C89.7032 90.1511 89.9514 90.1469 90.2072 90.1427C91.025 90.1311 91.8423 90.1316 92.6602 90.1323C93.2329 90.127 93.8055 90.1209 94.3782 90.1142C95.5787 90.1018 96.7789 90.0949 97.9795 90.0923C99.5079 90.089 101.036 90.077 102.564 90.0613C104.033 90.0466 105.501 90.0357 106.969 90.0256C107.382 90.0224 107.382 90.0224 107.804 90.0192C116.193 89.9639 116.193 89.9639 118.179 90.9423Z" fill="#0A2219"/>
<path d="M189.718 99C190.144 100.234 190.092 100.371 189.529 101.48C188.468 103.404 186.975 104.628 185.024 105.689C182.679 106.241 180.855 106.091 178.759 104.972C176.941 103.715 175.488 102.216 175 100.092C175.325 100.072 175.65 100.052 175.985 100.031C177.207 99.955 178.429 99.8782 179.65 99.801C180.176 99.768 180.702 99.7351 181.228 99.7026C184.066 99.5267 186.895 99.3348 189.718 99Z" fill="#FCFCF9"/>
<path d="M176.929 73C177.335 73.1179 177.74 73.2357 178.158 73.3572C177.989 75.259 177.568 76.8676 176.926 78.63C176.742 79.1524 176.558 79.675 176.375 80.1976C176.085 81.0121 175.794 81.8257 175.501 82.6383C175.217 83.4286 174.939 84.2214 174.661 85.0148C174.572 85.2574 174.482 85.5 174.39 85.75C173.919 87.0941 173.919 87.0941 174.07 88.4971C174.889 89.6699 176.02 89.75 177.256 89.9094C178.17 90.001 179.084 90.0797 180 90.1452C179.899 90.7346 179.797 91.324 179.693 91.9312C176.739 92.1049 174.631 92.1138 172.304 89.8997C171.287 86.9806 173.07 83.3564 174.018 80.6392C174.301 79.8273 174.58 79.0133 174.857 78.1988C175.035 77.6796 175.214 77.1606 175.393 76.6417C175.476 76.3995 175.559 76.1572 175.645 75.9077C176.013 74.8546 176.385 73.9503 176.929 73Z" fill="#0A1F17"/>
<path d="M42.2979 68C43.1915 68.1255 43.1915 68.1255 44 68.3346C43.8096 69.5077 43.4681 69.9519 42.5133 70.6641C42.2709 70.8473 42.0285 71.0305 41.7788 71.2192C41.5147 71.413 41.2507 71.6069 40.9787 71.8066C40.7081 72.0092 40.4375 72.2119 40.1587 72.4207C39.2866 73.0712 38.4102 73.7157 37.5319 74.3582C37.2344 74.5759 36.9369 74.7936 36.6303 75.0178C34.9969 76.2099 33.3586 77.3951 31.7149 78.5735C31.2529 78.9068 30.8015 79.2545 30.3582 79.6116C29.7021 80.0471 29.7021 80.0471 28.766 79.9425C28.5132 79.8666 28.2604 79.7907 28 79.7125C28.1249 78.8223 28.2755 78.4363 28.9381 77.7995C29.1968 77.6098 29.4555 77.4202 29.7221 77.2249C30.1576 76.9021 30.1576 76.9021 30.602 76.5727C30.9159 76.3458 31.2298 76.1188 31.5532 75.885C31.8721 75.6503 32.1911 75.4156 32.5197 75.1737C34.9066 73.4235 37.3151 71.7014 39.7406 70.0034C39.9785 69.8366 40.2164 69.6699 40.4614 69.498C40.6691 69.3534 40.8767 69.2087 41.0907 69.0596C41.6674 68.6507 41.6674 68.6507 42.2979 68Z" fill="#0A1F17"/>
<path d="M52.2669 229C52.6613 229.001 53.0556 229.002 53.462 229.003C53.9073 229.003 54.3527 229.003 54.8115 229.003C55.2962 229.005 55.7808 229.007 56.2802 229.009C57.02 229.01 57.02 229.01 57.7748 229.011C59.0883 229.012 60.4018 229.016 61.7153 229.02C63.0547 229.024 64.3942 229.026 65.7336 229.028C68.3634 229.032 70.9932 229.039 73.623 229.047C73.8096 230.014 73.8096 230.014 74 231C66.5344 231 59.0689 231 51.377 231C51.2526 230.484 51.1282 229.969 51 229.438C51.377 229.047 51.377 229.047 52.2669 229Z" fill="#051A12"/>
<path d="M52.2669 238C52.6613 238.001 53.0556 238.002 53.462 238.003C53.9073 238.003 54.3527 238.003 54.8115 238.003C55.2962 238.005 55.7808 238.007 56.2802 238.009C57.02 238.009 57.02 238.009 57.7748 238.01C59.0883 238.012 60.4018 238.015 61.7153 238.02C63.0547 238.024 64.3942 238.025 65.7336 238.027C68.3634 238.031 70.9932 238.038 73.623 238.046C73.835 238.785 73.835 238.785 74 239.572C73.623 239.954 73.623 239.954 72.7331 240C72.3387 239.999 71.9444 239.998 71.538 239.997C71.0927 239.997 70.6473 239.997 70.1885 239.997C69.7038 239.995 69.2192 239.993 68.7198 239.991C68.2266 239.991 67.7334 239.99 67.2252 239.99C65.9117 239.988 64.5982 239.985 63.2847 239.98C61.9453 239.976 60.6058 239.975 59.2664 239.973C56.6366 239.969 54.0068 239.962 51.377 239.954C51.165 239.215 51.165 239.215 51 238.428C51.377 238.046 51.377 238.046 52.2669 238Z" fill="#031710"/>
<path d="M68.6364 213C69.0864 213.245 69.5364 213.49 70 213.743C69.5425 214.866 69.0502 215.594 68.2169 216.419C67.9991 216.637 67.7814 216.855 67.557 217.079C67.3296 217.303 67.1022 217.527 66.8679 217.757C66.4223 218.2 65.977 218.643 65.5322 219.087C65.3115 219.305 65.0907 219.522 64.8632 219.747C63.9948 220.642 63.1998 221.606 62.413 222.586C61.8182 223.025 61.8182 223.025 60.9754 222.982C60.03 222.622 59.5457 222.234 58.8286 221.48C58.6033 221.247 58.3781 221.014 58.1461 220.773C57.9165 220.528 57.6869 220.284 57.4503 220.031C57.2141 219.785 56.9779 219.539 56.7345 219.285C56.1534 218.678 55.5754 218.069 55 217.456C55.1125 216.965 55.225 216.475 55.3409 215.97C56.8764 216.287 57.7376 217.262 58.8352 218.407C59.0242 218.6 59.2132 218.793 59.4078 218.992C59.8725 219.468 60.3342 219.946 60.7955 220.426C61.8086 219.931 62.505 219.393 63.2764 218.526C63.5812 218.188 63.5812 218.188 63.8923 217.843C64.1008 217.608 64.3093 217.373 64.5241 217.131C65.8392 215.657 67.1263 214.242 68.6364 213Z" fill="#07140E"/>
<path d="M174.02 59.3675C174.618 59.9385 174.618 59.9385 174.952 61.1844C174.968 61.5956 174.984 62.0067 175 62.4303C173.748 63.7903 171.909 63.4264 170.209 63.4597C168.329 63.5327 167.108 63.9009 165.438 64.9221C164.363 65.026 164.363 65.026 163.526 64.9221C163.143 64.5068 163.143 64.5068 163 63.5464C163.143 62.4303 163.143 62.4303 163.932 61.5478C166.937 59.4652 170.485 58.3834 174.02 59.3675Z" fill="#092118"/>
<path d="M191.161 60.3929C193.306 61.0041 195.271 61.6042 197 63.146C196.88 63.6651 196.759 64.1843 196.635 64.7192C195.401 65.1737 194.725 65.0419 193.51 64.5717C191.795 63.9667 190.201 63.7538 188.404 63.6607C187.473 63.534 186.858 63.2562 186.051 62.7527C185.983 61.8186 185.983 61.8186 186.051 60.7862C187.732 59.5791 189.228 60.0284 191.161 60.3929Z" fill="#0A1A14"/>
<path d="M33.637 133C34.1954 133 34.7539 133.001 35.3123 133.003C35.6057 133.003 35.8991 133.004 36.2014 133.004C37.1422 133.005 38.0829 133.007 39.0236 133.01C39.6599 133.011 40.2962 133.012 40.9325 133.012C42.4956 133.014 44.0586 133.018 45.6216 133.022C45.8345 133.392 45.8345 133.392 46 133.787C45.6216 133.978 45.6216 133.978 44.363 134C43.8046 134 43.2461 133.999 42.6877 133.997C42.3943 133.997 42.1009 133.996 41.7986 133.996C40.8578 133.995 39.9171 133.993 38.9764 133.99C38.3401 133.989 37.7038 133.988 37.0675 133.988C35.5044 133.986 33.9414 133.982 32.3784 133.978C32.1655 133.608 32.1655 133.608 32 133.213C32.3784 133.022 32.3784 133.022 33.637 133Z" fill="#0D241B"/>
<path d="M168.954 71C170.382 71.1818 170.382 71.1818 171.275 71.6465C172.08 72.8913 172.144 74.0471 171.811 75.3838C170.858 76.3737 170.858 76.3737 169.906 77C168.537 76.9394 168.537 76.9394 167.049 76.6768C165.886 75.4567 165.91 74.2173 166.096 72.798C166.786 71.5764 167.032 71.2446 168.954 71Z" fill="#0A231A"/>
<path d="M126 144C126 144.213 126 144.425 126 144.644C124.785 145.024 124.28 145.004 122.842 144.998C122.427 144.997 122.012 144.996 121.585 144.994C120.935 144.99 120.935 144.99 120.271 144.986C119.834 144.985 119.397 144.983 118.946 144.982C117.864 144.978 116.783 144.973 115.701 144.966C116.041 144.86 116.381 144.754 116.731 144.644C115.427 144.44 114.183 144.446 112.822 144.432C112.542 144.429 112.262 144.425 111.973 144.422C111.077 144.411 110.182 144.402 109.286 144.392C108.679 144.386 108.072 144.379 107.465 144.371C105.977 144.354 104.488 144.338 103 144.322C103 144.269 103 144.216 103 144.161C105.847 144.14 108.694 144.119 111.54 144.098C112.862 144.088 114.184 144.079 115.506 144.069C116.781 144.059 118.057 144.05 119.332 144.041C119.819 144.037 120.306 144.033 120.792 144.03C121.474 144.025 122.155 144.02 122.836 144.015C123.224 144.012 123.612 144.009 124.012 144.006C124.675 144.002 125.337 144 126 144Z" fill="#183523"/>
<path d="M192.236 71C193.252 71.3684 193.252 71.3684 193.728 72.1513C194.076 73.8588 194.167 75.2136 193.533 76.8487C192.776 77.7935 192.318 77.9014 191.176 78C190.13 76.7768 189.997 75.9294 190.008 74.2928C190.005 73.9086 190.003 73.5243 190 73.1285C190.138 72.1053 190.138 72.1053 190.599 71.4159C191.176 71 191.176 71 192.236 71Z" fill="#0D261D"/>
<path d="M113 168C113.206 168 113.412 168 113.625 168C113.728 168.228 113.831 168.457 113.938 168.692C114.144 168.464 114.35 168.235 114.562 168C118 175.464 126.5 191.31 126.5 192.5C140.5 219.846 125.469 192.728 124.938 192.846C124.479 191.802 115.524 174.91 115.07 173.863C114.941 173.57 114.812 173.276 114.68 172.974C113.971 171.334 113.394 169.767 113 168Z" fill="#0A271C"/>
<path d="M83.4114 115C83.4762 115.261 83.5409 115.522 83.6076 115.791C83.7371 115.791 83.8666 115.791 84 115.791C83.9055 117.01 83.7645 117.937 83.5034 119.065C83.041 121.513 83.1531 124.083 83.1784 126.663C83.1824 127.433 83.1824 127.433 83.1865 128.219C83.1934 129.48 83.203 130.74 83.2152 132C83.1505 132 83.0857 132 83.019 132C82.8711 130.675 82.7993 129.457 82.8037 128.101C82.8043 127.75 82.8049 127.4 82.8056 127.039C82.8072 126.678 82.8089 126.318 82.8106 125.946C82.8114 125.578 82.8123 125.21 82.8132 124.83C82.8155 123.926 82.8188 123.021 82.8228 122.116C82.6933 122.247 82.5638 122.377 82.4304 122.512C82.3018 123.511 82.3018 123.511 82.2342 124.488C82.1695 124.488 82.1047 124.488 82.038 124.488C81.9034 121.034 82.1026 118.378 83.019 115.395C83.1485 115.265 83.278 115.134 83.4114 115Z" fill="#071C16"/>
<path d="M264.417 146C265.915 147.189 267.061 148.391 268.167 149.85C268.304 149.965 268.442 150.081 268.583 150.2C268.773 151.129 268.876 152.063 269 153C267.422 152.558 267.316 152.071 266.5 150.9C266.087 150.669 265.675 150.438 265.25 150.2C264.654 148.948 264.227 147.685 264 146.35C264.138 146.234 264.275 146.119 264.417 146Z" fill="#092A1F"/>
<path d="M32.3333 76C32.5533 76.095 32.7733 76.1901 33 76.288C32.34 76.5731 32.34 76.5731 31.6667 76.864C31.7079 77.1194 31.7492 77.3748 31.7917 77.638C31.6667 78.5919 31.6667 78.5919 30.7708 79.4379C29.6667 80.0319 29.6667 80.0319 28.7083 79.9779C28.4746 79.9007 28.2408 79.8234 28 79.7439C28.0404 79.2534 28.0404 79.2534 28.3333 78.5919C28.9984 78.094 29.6381 77.6581 30.3542 77.224C30.6381 77.0463 30.6381 77.0463 30.9277 76.8651C31.394 76.574 31.8634 76.2866 32.3333 76Z" fill="#0B1E16"/>
<path d="M109.688 133C110.121 133.13 110.554 133.261 111 133.395C110.729 133.68 110.459 133.965 110.18 134.259C109.218 135.296 109.218 135.296 108.84 136.383C108.221 137.664 107.49 138.187 106.188 138.926C104.957 139.025 104.957 139.025 104 138.926C104.169 138.749 104.338 138.573 104.513 138.39C106.898 136.039 106.898 136.039 108.812 133.395C109.101 133.265 109.39 133.134 109.688 133Z" fill="#0F2D22"/>
<path d="M284.388 239C284.59 239.139 284.792 239.278 285 239.421C284.116 244.756 284.116 244.756 283.164 247C282.861 247 282.559 247 282.247 247C281.941 245.737 281.941 245.737 282.131 244.975C282.235 244.699 282.339 244.424 282.446 244.14C282.558 243.84 282.669 243.54 282.784 243.231C282.903 242.92 283.022 242.61 283.145 242.289C283.322 241.816 283.322 241.816 283.503 241.333C283.795 240.553 284.091 239.776 284.388 239Z" fill="#0D2B1F"/>
<path d="M115 229C117.514 229.106 120.029 229.213 122.619 229.323C122.745 229.536 122.87 229.749 123 229.968C117.863 230.032 117.863 230.032 115.762 229.645C115.51 229.432 115.259 229.219 115 229Z" fill="#163227"/>
<path d="M276 169C276.622 169.052 276.622 169.052 277.364 169.312C277.882 170.051 277.882 170.051 278.323 170.973C278.548 171.425 278.548 171.425 278.777 171.887C279.077 172.775 279.087 173.148 278.728 174C278.503 174 278.278 174 278.046 174C277.349 173.08 276.927 172.277 276.682 171.188C276.456 170.458 276.229 169.729 276 169Z" fill="#0B2D1F"/>
<path d="M156.5 231C156.665 231 156.83 231 157 231C157 233.453 157 235.907 157 238.435C156.67 238.435 156.34 238.435 156 238.435C155.67 238.951 155.34 239.468 155 240C155 237.676 155 235.351 155 232.957C155.495 232.827 155.99 232.698 156.5 232.565C156.5 232.049 156.5 231.532 156.5 231Z" fill="#183429"/>
<path d="M242.31 226C242.462 226 242.614 226 242.77 226C242.846 228.056 242.922 230.112 243 232.231C242.924 232.231 242.848 232.231 242.77 232.231C242.694 233.145 242.618 234.058 242.54 235C242.464 235 242.388 235 242.31 235C241.854 232.112 241.942 228.908 242.31 226Z" fill="#103026"/>
<path d="M98.7232 106.006C99.161 106.011 99.161 106.011 99.6077 106.015C99.9433 106.021 99.9433 106.021 100.286 106.027C100.286 106.241 100.286 106.456 100.286 106.677C100.521 106.784 100.757 106.891 101 107.002C99.2393 107.665 97.9359 108.109 96 107.977C96.1339 107.185 96.1339 107.185 96.3571 106.352C97.2162 105.961 97.7678 105.994 98.7232 106.006Z" fill="#061F16"/>
<path d="M34 96.0449C42.2128 95.9534 42.2128 95.9534 46 96.5224C46 96.6012 46 96.68 46 96.7612C44.944 96.84 43.888 96.9188 42.8 97C42.8 96.8424 42.8 96.6848 42.8 96.5224C42.0915 96.5562 41.3832 96.5913 40.675 96.6269C40.0833 96.656 40.0833 96.656 39.4797 96.6857C38.3625 96.7417 38.3625 96.7417 37.2 97C36.936 96.8424 36.672 96.6848 36.4 96.5224C35.6047 96.4275 34.8042 96.3463 34 96.2836C34 96.2048 34 96.126 34 96.0449Z" fill="#08250F"/>
<path d="M23.75 140C24.7344 140.188 24.7344 140.188 25.625 140.5C25.8594 141.688 25.8594 141.688 26 143C25.7525 143.33 25.505 143.66 25.25 144C24.2656 143.812 24.2656 143.812 23.375 143.5C23.1406 142.312 23.1406 142.312 23 141C23.2475 140.67 23.495 140.34 23.75 140Z" fill="#0C1F17"/>
<path d="M106.385 221C109.33 224.001 109.33 224.001 110.231 226.5C110.612 227.242 110.612 227.242 111 228C109.46 227.739 108.844 226.809 107.851 225.312C107.584 224.917 107.316 224.521 107.041 224.113C106.385 223 106.385 223 106 221.5C106.127 221.335 106.254 221.17 106.385 221Z" fill="#0C2F23"/>
<path d="M90.1786 160C90.2023 160.238 90.2261 160.476 90.2505 160.721C90.3317 161.551 90.3317 161.551 90.5072 162.308C90.6156 162.054 90.724 161.8 90.8357 161.538C90.8899 162.681 90.9441 163.823 91 165C90.9458 164.619 90.8916 164.238 90.8357 163.846C90.5105 164.227 90.5105 164.227 90.1786 164.615C89.966 163.122 89.9927 161.959 90.0144 160.385C90.0686 160.258 90.1228 160.131 90.1786 160Z" fill="#071F17"/>
<path d="M177.2 139C177.291 139.214 177.382 139.429 177.475 139.65C178.174 140.914 179.056 141.907 180 143C178.916 142.938 178.214 142.807 177.422 142.039C176.929 141.441 176.463 140.821 176 140.2C176.396 139.804 176.792 139.408 177.2 139Z" fill="#092C22"/>
<path d="M110.247 130C110.491 130 110.735 130 110.987 130C111.017 132.25 111.017 132.25 110.74 133C110.496 132.89 110.252 132.78 110 132.667C110.081 131.787 110.163 130.907 110.247 130Z" fill="#0B2D23"/>
<path d="M267.286 195C267.851 195 268.417 195 269 195C268.768 195.812 268.768 195.812 268.429 196.667C268.146 196.777 267.863 196.887 267.571 197C267.268 196.375 267.268 196.375 267 195.667C267.094 195.447 267.189 195.227 267.286 195Z" fill="#102C20"/>
<path d="M154.6 137C154.732 137 154.864 137 155 137C155 137.743 155 138.485 155 139.25C154.67 139.497 154.34 139.745 154 140C154.198 139.01 154.396 138.02 154.6 137Z" fill="#061E18"/>
<path d="M102 141.37C102 141.659 102 141.948 102 142.247C101.78 142.536 101.56 142.825 101.333 143.123C101.443 143.413 101.553 143.702 101.667 144C101.021 143.671 101.021 143.671 100.333 143.123C100.083 142.192 100.083 142.192 100 141.37C101.25 140.877 101.25 140.877 102 141.37Z" fill="#102F24"/>
<path d="M40 96.0611C40.6536 96.0441 41.3076 96.032 41.9615 96.022C42.3256 96.0147 42.6898 96.0075 43.0649 96C44.2495 96.0665 44.9807 96.2844 46 96.687C44.7815 96.7903 43.5631 96.8936 42.3077 97C42.3077 96.7934 42.3077 96.5869 42.3077 96.3741C41.5462 96.3741 40.7846 96.3741 40 96.3741C40 96.2708 40 96.1675 40 96.0611Z" fill="#051C07"/>
<path d="M281 190C281.33 190.094 281.66 190.189 282 190.286C281.918 190.851 281.835 191.417 281.75 192C281.585 192 281.42 192 281.25 192C281.167 191.34 281.085 190.68 281 190Z" fill="#103226"/>
</svg>
