<svg width="301" height="120" viewBox="0 0 301 120" fill="none" xmlns="http://www.w3.org/2000/svg">
<path d="M26.304 26.92V20.392C26.304 18.344 25.6 16.616 24.192 15.208C22.784 13.8 21.056 13.096 19.008 13.096C16.96 13.096 15.2 13.8 13.728 15.208C12.32 16.616 11.616 18.344 11.616 20.392V58.6C11.616 60.648 12.32 62.376 13.728 63.784C15.2 65.192 16.96 65.896 19.008 65.896C21.056 65.896 22.784 65.192 24.192 63.784C25.6 62.376 26.304 60.648 26.304 58.6V52.072H33.888V58.6C33.888 60.648 33.472 62.568 32.64 64.36C31.872 66.152 30.816 67.72 29.472 69.064C28.128 70.408 26.56 71.496 24.768 72.328C22.976 73.096 21.056 73.48 19.008 73.48C16.96 73.48 15.008 73.096 13.152 72.328C11.36 71.496 9.792 70.408 8.448 69.064C7.104 67.72 6.048 66.152 5.28 64.36C4.512 62.568 4.128 60.648 4.128 58.6V20.392C4.128 18.344 4.512 16.424 5.28 14.632C6.048 12.84 7.104 11.272 8.448 9.928C9.792 8.584 11.36 7.528 13.152 6.75999C15.008 5.928 16.96 5.512 19.008 5.512C21.056 5.512 22.976 5.928 24.768 6.75999C26.56 7.528 28.128 8.584 29.472 9.928C30.816 11.272 31.872 12.84 32.64 14.632C33.472 16.424 33.888 18.344 33.888 20.392V26.92H26.304ZM56.0483 5.608C58.0963 5.608 60.0163 5.992 61.8083 6.75999C63.6003 7.528 65.1683 8.584 66.5123 9.928C67.8563 11.272 68.9123 12.84 69.6803 14.632C70.5123 16.424 70.9283 18.344 70.9283 20.392V73H63.3443V49.864L48.6562 56.296V73H41.1683V20.392C41.1683 18.344 41.5523 16.424 42.3203 14.632C43.0883 12.84 44.1443 11.272 45.4883 9.928C46.8323 8.584 48.4003 7.528 50.1923 6.75999C52.0483 5.992 54.0003 5.608 56.0483 5.608ZM63.3443 20.392C63.3443 18.344 62.6403 16.616 61.2323 15.208C59.8243 13.8 58.0963 13.096 56.0483 13.096C54.0003 13.096 52.2403 13.8 50.7682 15.208C49.3602 16.616 48.6562 18.344 48.6562 20.392V48.616L63.3443 42.28V20.392ZM94.7648 33.352C96.1728 34.056 97.6448 34.856 99.1808 35.752C100.781 36.584 102.221 37.608 103.501 38.824C104.845 40.04 105.933 41.512 106.765 43.24C107.661 44.904 108.109 46.888 108.109 49.192V58.6C108.109 60.648 107.693 62.568 106.861 64.36C106.093 66.152 105.037 67.72 103.693 69.064C102.349 70.408 100.781 71.496 98.9888 72.328C97.1968 73.096 95.2768 73.48 93.2288 73.48C91.1808 73.48 89.2288 73.096 87.3728 72.328C85.5808 71.496 84.0128 70.408 82.6688 69.064C81.3248 67.72 80.2688 66.152 79.5008 64.36C78.7328 62.568 78.3488 60.648 78.3488 58.6V52.072H85.8368V58.6C85.8368 60.648 86.5408 62.376 87.9488 63.784C89.4208 65.192 91.1808 65.896 93.2288 65.896C95.2768 65.896 97.0048 65.192 98.4128 63.784C99.8208 62.376 100.525 60.648 100.525 58.6V49.192C100.525 47.144 99.7888 45.512 98.3168 44.296C96.8448 43.016 94.5408 41.608 91.4048 40.072C90.0608 39.432 88.6528 38.728 87.1808 37.96C85.7728 37.128 84.4928 36.2 83.3408 35.176C82.1888 34.088 81.2288 32.84 80.4608 31.432C79.6928 29.96 79.3088 28.232 79.3088 26.248V20.392C79.3088 18.28 79.6608 16.328 80.3648 14.536C81.0688 12.68 82.0288 11.112 83.2448 9.832C84.5248 8.488 85.9968 7.432 87.6608 6.664C89.3888 5.896 91.2448 5.512 93.2288 5.512C95.2128 5.512 97.0368 5.896 98.7008 6.664C100.365 7.432 101.805 8.488 103.021 9.832C104.301 11.112 105.293 12.68 105.997 14.536C106.701 16.328 107.053 18.28 107.053 20.392V26.92H99.5648V20.392C99.5648 17.896 98.8928 16.072 97.5488 14.92C96.2048 13.704 94.7648 13.096 93.2288 13.096C91.6928 13.096 90.2528 13.704 88.9088 14.92C87.5648 16.072 86.8928 17.896 86.8928 20.392V26.248C86.8928 27.72 87.5008 28.936 88.7168 29.896C89.9968 30.856 92.0128 32.008 94.7648 33.352ZM145.935 5.992V73H138.351V44.68L123.663 52.84V73H116.175V5.992H123.663V44.776L138.351 36.712V5.992H145.935ZM181.374 65.512V73H155.454V6.184H162.942V65.512H181.374ZM206.609 5.992V23.944C206.609 25.288 206.257 26.792 205.553 28.456C204.849 30.12 203.921 31.752 202.769 33.352C201.681 34.952 200.465 36.424 199.121 37.768C197.841 39.112 196.625 40.104 195.473 40.744V73H187.984V40.744C186.769 40.168 185.489 39.208 184.145 37.864C182.865 36.52 181.681 35.048 180.593 33.448C179.505 31.848 178.609 30.216 177.905 28.552C177.201 26.824 176.849 25.288 176.849 23.944V5.992H184.337V23.944C184.337 24.456 184.625 25.288 185.201 26.44C185.841 27.528 186.577 28.648 187.409 29.8C188.241 30.952 189.073 31.976 189.905 32.872C190.737 33.704 191.345 34.12 191.729 34.12C192.113 34.12 192.689 33.704 193.457 32.872C194.289 31.976 195.121 30.952 195.953 29.8C196.785 28.648 197.489 27.528 198.065 26.44C198.705 25.288 199.025 24.456 199.025 23.944V5.992H206.609Z" fill="#70897D"/>
<path d="M29.304 26.92V20.392C29.304 18.344 28.6 16.616 27.192 15.208C25.784 13.8 24.056 13.096 22.008 13.096C19.96 13.096 18.2 13.8 16.728 15.208C15.32 16.616 14.616 18.344 14.616 20.392V58.6C14.616 60.648 15.32 62.376 16.728 63.784C18.2 65.192 19.96 65.896 22.008 65.896C24.056 65.896 25.784 65.192 27.192 63.784C28.6 62.376 29.304 60.648 29.304 58.6V52.072H36.888V58.6C36.888 60.648 36.472 62.568 35.64 64.36C34.872 66.152 33.816 67.72 32.472 69.064C31.128 70.408 29.56 71.496 27.768 72.328C25.976 73.096 24.056 73.48 22.008 73.48C19.96 73.48 18.008 73.096 16.152 72.328C14.36 71.496 12.792 70.408 11.448 69.064C10.104 67.72 9.048 66.152 8.28 64.36C7.512 62.568 7.128 60.648 7.128 58.6V20.392C7.128 18.344 7.512 16.424 8.28 14.632C9.048 12.84 10.104 11.272 11.448 9.928C12.792 8.584 14.36 7.528 16.152 6.75999C18.008 5.928 19.96 5.512 22.008 5.512C24.056 5.512 25.976 5.928 27.768 6.75999C29.56 7.528 31.128 8.584 32.472 9.928C33.816 11.272 34.872 12.84 35.64 14.632C36.472 16.424 36.888 18.344 36.888 20.392V26.92H29.304ZM59.0483 5.608C61.0963 5.608 63.0163 5.992 64.8083 6.75999C66.6003 7.528 68.1683 8.584 69.5123 9.928C70.8563 11.272 71.9123 12.84 72.6803 14.632C73.5123 16.424 73.9283 18.344 73.9283 20.392V73H66.3443V49.864L51.6562 56.296V73H44.1683V20.392C44.1683 18.344 44.5523 16.424 45.3203 14.632C46.0883 12.84 47.1443 11.272 48.4883 9.928C49.8323 8.584 51.4003 7.528 53.1923 6.75999C55.0483 5.992 57.0003 5.608 59.0483 5.608ZM66.3443 20.392C66.3443 18.344 65.6403 16.616 64.2323 15.208C62.8243 13.8 61.0963 13.096 59.0483 13.096C57.0003 13.096 55.2403 13.8 53.7682 15.208C52.3602 16.616 51.6562 18.344 51.6562 20.392V48.616L66.3443 42.28V20.392ZM97.7648 33.352C99.1728 34.056 100.645 34.856 102.181 35.752C103.781 36.584 105.221 37.608 106.501 38.824C107.845 40.04 108.933 41.512 109.765 43.24C110.661 44.904 111.109 46.888 111.109 49.192V58.6C111.109 60.648 110.693 62.568 109.861 64.36C109.093 66.152 108.037 67.72 106.693 69.064C105.349 70.408 103.781 71.496 101.989 72.328C100.197 73.096 98.2768 73.48 96.2288 73.48C94.1808 73.48 92.2288 73.096 90.3728 72.328C88.5808 71.496 87.0128 70.408 85.6688 69.064C84.3248 67.72 83.2688 66.152 82.5008 64.36C81.7328 62.568 81.3488 60.648 81.3488 58.6V52.072H88.8368V58.6C88.8368 60.648 89.5408 62.376 90.9488 63.784C92.4208 65.192 94.1808 65.896 96.2288 65.896C98.2768 65.896 100.005 65.192 101.413 63.784C102.821 62.376 103.525 60.648 103.525 58.6V49.192C103.525 47.144 102.789 45.512 101.317 44.296C99.8448 43.016 97.5408 41.608 94.4048 40.072C93.0608 39.432 91.6528 38.728 90.1808 37.96C88.7728 37.128 87.4928 36.2 86.3408 35.176C85.1888 34.088 84.2288 32.84 83.4608 31.432C82.6928 29.96 82.3088 28.232 82.3088 26.248V20.392C82.3088 18.28 82.6608 16.328 83.3648 14.536C84.0688 12.68 85.0288 11.112 86.2448 9.832C87.5248 8.488 88.9968 7.432 90.6608 6.664C92.3888 5.896 94.2448 5.512 96.2288 5.512C98.2128 5.512 100.037 5.896 101.701 6.664C103.365 7.432 104.805 8.488 106.021 9.832C107.301 11.112 108.293 12.68 108.997 14.536C109.701 16.328 110.053 18.28 110.053 20.392V26.92H102.565V20.392C102.565 17.896 101.893 16.072 100.549 14.92C99.2048 13.704 97.7648 13.096 96.2288 13.096C94.6928 13.096 93.2528 13.704 91.9088 14.92C90.5648 16.072 89.8928 17.896 89.8928 20.392V26.248C89.8928 27.72 90.5008 28.936 91.7168 29.896C92.9968 30.856 95.0128 32.008 97.7648 33.352ZM148.935 5.992V73H141.351V44.68L126.663 52.84V73H119.175V5.992H126.663V44.776L141.351 36.712V5.992H148.935ZM184.374 65.512V73H158.454V6.184H165.942V65.512H184.374ZM209.609 5.992V23.944C209.609 25.288 209.257 26.792 208.553 28.456C207.849 30.12 206.921 31.752 205.769 33.352C204.681 34.952 203.465 36.424 202.121 37.768C200.841 39.112 199.625 40.104 198.473 40.744V73H190.984V40.744C189.769 40.168 188.489 39.208 187.145 37.864C185.865 36.52 184.681 35.048 183.593 33.448C182.505 31.848 181.609 30.216 180.905 28.552C180.201 26.824 179.849 25.288 179.849 23.944V5.992H187.337V23.944C187.337 24.456 187.625 25.288 188.201 26.44C188.841 27.528 189.577 28.648 190.409 29.8C191.241 30.952 192.073 31.976 192.905 32.872C193.737 33.704 194.345 34.12 194.729 34.12C195.113 34.12 195.689 33.704 196.457 32.872C197.289 31.976 198.121 30.952 198.953 29.8C199.785 28.648 200.489 27.528 201.065 26.44C201.705 25.288 202.025 24.456 202.025 23.944V5.992H209.609Z" fill="#054A29"/>
</svg>
