<svg width="103" height="32" viewBox="0 0 103 32" fill="none" xmlns="http://www.w3.org/2000/svg">
<path d="M10.456 23.2L8.184 24.224L3.896 14.688C3.78933 14.432 3.736 14.1973 3.736 13.984C3.736 13.6213 3.832 13.28 4.024 12.96C4.408 12.4053 4.92 12.128 5.56 12.128C6.136 12.128 6.62667 11.9253 7.032 11.52C7.45867 11.1147 7.672 10.6133 7.672 10.016V6.656C7.672 5.97333 7.42667 5.39733 6.936 4.928C6.46667 4.43733 5.89067 4.192 5.208 4.192H3.096V24H0.6V1.696H5.208C5.89067 1.696 6.53067 1.824 7.128 2.08C7.74667 2.336 8.28 2.688 8.728 3.136C9.176 3.584 9.528 4.11733 9.784 4.736C10.04 5.33333 10.168 5.97333 10.168 6.656V10.016C10.168 11.1253 9.82667 12.096 9.144 12.928C8.46133 13.76 7.608 14.2933 6.584 14.528L10.456 23.2ZM14.8645 18.176V19.264C14.8645 19.9893 15.0885 20.5973 15.5365 21.088C16.0058 21.5787 16.5818 21.824 17.2645 21.824C17.9472 21.824 18.5125 21.5787 18.9605 21.088C19.4298 20.5973 19.6645 19.9893 19.6645 19.264V18.656H22.0005V19.264C22.0005 19.9467 21.8725 20.5867 21.6165 21.184C21.3818 21.7813 21.0512 22.304 20.6245 22.752C20.1978 23.1787 19.6965 23.52 19.1205 23.776C18.5445 24.032 17.9258 24.16 17.2645 24.16C16.6032 24.16 15.9845 24.032 15.4085 23.776C14.8325 23.52 14.3312 23.1787 13.9045 22.752C13.4778 22.304 13.1365 21.7813 12.8805 21.184C12.6458 20.5867 12.5285 19.9467 12.5285 19.264V11.456C12.5285 10.7733 12.6565 10.144 12.9125 9.568C13.1685 8.97067 13.5205 8.448 13.9685 8C14.4165 7.552 14.9392 7.2 15.5365 6.944C16.1338 6.688 16.7632 6.56 17.4245 6.56C18.1072 6.56 18.7365 6.688 19.3125 6.944C19.9098 7.2 20.4325 7.552 20.8805 8C21.3285 8.448 21.6805 8.97067 21.9365 9.568C22.1925 10.144 22.3205 10.7733 22.3205 11.456V12.064C22.3205 12.7893 22.1285 13.4613 21.7445 14.08C21.3818 14.6773 20.8805 15.136 20.2405 15.456L14.8645 18.176ZM14.8645 15.552L19.1845 13.376C19.7178 13.0987 19.9845 12.6613 19.9845 12.064V11.456C19.9845 10.752 19.7285 10.1547 19.2165 9.664C18.7258 9.152 18.1285 8.896 17.4245 8.896C16.7205 8.896 16.1125 9.152 15.6005 9.664C15.1098 10.1547 14.8645 10.752 14.8645 11.456V15.552ZM32.402 8.064C32.9353 8.512 33.3513 9.056 33.65 9.696C33.9487 10.336 34.098 11.0293 34.098 11.776V18.56C34.098 19.2213 33.97 19.8507 33.714 20.448C33.458 21.0453 33.106 21.568 32.658 22.016C32.2313 22.4427 31.7193 22.784 31.122 23.04C30.546 23.296 29.9167 23.424 29.234 23.424C28.5727 23.424 27.9433 23.296 27.346 23.04C26.7487 22.784 26.226 22.4427 25.778 22.016C25.3513 21.568 25.01 21.0453 24.754 20.448C24.498 19.8507 24.37 19.2213 24.37 18.56V11.776C24.37 11.0933 24.498 10.464 24.754 9.888C25.01 9.29067 25.3407 8.77867 25.746 8.352C26.1727 7.904 26.6527 7.552 27.186 7.296C27.7407 7.04 28.3167 6.912 28.914 6.912C29.7887 6.912 30.482 6.66667 30.994 6.176C31.506 5.664 31.762 5.06667 31.762 4.384H34.098C34.098 5.13067 33.9487 5.824 33.65 6.464C33.3513 7.08267 32.9353 7.616 32.402 8.064ZM31.762 11.776C31.762 11.072 31.5167 10.4747 31.026 9.984C30.5353 9.49333 29.938 9.248 29.234 9.248C28.5513 9.248 27.954 9.49333 27.442 9.984C26.9513 10.4747 26.706 11.072 26.706 11.776V18.56C26.706 19.2427 26.9513 19.84 27.442 20.352C27.954 20.8427 28.5513 21.088 29.234 21.088C29.938 21.088 30.5353 20.8427 31.026 20.352C31.5167 19.84 31.762 19.2427 31.762 18.56V11.776ZM31.762 24.352H34.098V26.528C34.098 27.2107 33.97 27.84 33.714 28.416C33.458 29.0133 33.106 29.5253 32.658 29.952C32.2313 30.4 31.7193 30.752 31.122 31.008C30.546 31.264 29.9167 31.392 29.234 31.392C28.5727 31.392 27.9433 31.264 27.346 31.008C26.7487 30.752 26.226 30.4 25.778 29.952C25.3513 29.5253 25.01 29.0133 24.754 28.416C24.498 27.84 24.37 27.2107 24.37 26.528V24.256H26.706V26.528C26.706 27.2107 26.9513 27.7973 27.442 28.288C27.954 28.8 28.5513 29.056 29.234 29.056C29.938 29.056 30.5353 28.8 31.026 28.288C31.5167 27.7973 31.762 27.2107 31.762 26.528V24.352ZM38.3213 5.056L37.2653 4.48L38.8013 0.768L40.5933 1.632L38.3213 5.056ZM36.7533 24V6.752H39.0893V24H36.7533ZM46.8345 14.24C47.3252 14.432 47.8265 14.656 48.3385 14.912C48.8505 15.1467 49.3198 15.4453 49.7465 15.808C50.1732 16.1493 50.5145 16.5547 50.7705 17.024C51.0478 17.4933 51.1865 18.0693 51.1865 18.752V20.192C51.1865 20.768 51.0585 21.312 50.8025 21.824C50.5678 22.3147 50.2372 22.7413 49.8105 23.104C49.4052 23.4667 48.9145 23.7547 48.3385 23.968C47.7838 24.16 47.1865 24.256 46.5465 24.256C45.8212 24.256 45.1492 24.128 44.5305 23.872C43.9118 23.616 43.3678 23.264 42.8985 22.816C42.4505 22.368 42.0985 21.8453 41.8425 21.248C41.5865 20.6507 41.4585 20.0213 41.4585 19.36V18.56H43.7945V19.36C43.7945 20.064 44.0505 20.6613 44.5625 21.152C45.0745 21.6427 45.7145 21.888 46.4825 21.888C46.7385 21.888 47.0052 21.856 47.2825 21.792C47.5812 21.728 47.8372 21.632 48.0505 21.504C48.2852 21.3547 48.4772 21.1733 48.6265 20.96C48.7758 20.7467 48.8505 20.4907 48.8505 20.192V18.752C48.8505 18.24 48.6158 17.824 48.1465 17.504C47.6772 17.184 46.9412 16.8107 45.9385 16.384C45.4692 16.192 44.9892 15.9787 44.4985 15.744C44.0078 15.5093 43.5598 15.232 43.1545 14.912C42.7492 14.592 42.4185 14.2187 42.1625 13.792C41.9065 13.344 41.7785 12.8107 41.7785 12.192V10.688C41.7785 10.176 41.8745 9.68533 42.0665 9.216C42.2585 8.72533 42.5358 8.288 42.8985 7.904C43.2825 7.52 43.7412 7.21067 44.2745 6.976C44.8078 6.74133 45.4158 6.624 46.0985 6.624C46.8025 6.624 47.4425 6.752 48.0185 7.008C48.6158 7.24267 49.1172 7.584 49.5225 8.032C49.9492 8.45867 50.2798 8.97067 50.5145 9.568C50.7492 10.1653 50.8665 10.816 50.8665 11.52V12.128H48.5305V11.52C48.5305 11.2 48.4878 10.8907 48.4025 10.592C48.3172 10.2933 48.1785 10.0267 47.9865 9.792C47.7945 9.55733 47.5492 9.36533 47.2505 9.216C46.9518 9.06667 46.5892 8.992 46.1625 8.992C45.4798 8.992 44.9678 9.17333 44.6265 9.536C44.3065 9.87733 44.1465 10.2613 44.1465 10.688V12.192C44.1465 12.6187 44.3812 12.9813 44.8505 13.28C45.3412 13.5573 46.0025 13.8773 46.8345 14.24ZM61.7563 19.616V20.16C61.7563 20.7147 61.6603 21.2373 61.4683 21.728C61.2976 22.2187 61.0416 22.6453 60.7003 23.008C60.3803 23.3707 59.9856 23.6587 59.5163 23.872C59.0683 24.064 58.5669 24.16 58.0123 24.16C57.5003 24.16 56.9989 24.0747 56.5083 23.904C56.0389 23.7333 55.6123 23.4773 55.2283 23.136C54.8443 22.7947 54.5349 22.3787 54.3003 21.888C54.0656 21.376 53.9483 20.8 53.9483 20.16V8.768H52.8923V6.752H53.9483V3.072H56.2843V6.752H59.0683V8.768H56.2843V20.16C56.2843 20.48 56.3376 20.7467 56.4443 20.96C56.5723 21.1733 56.7109 21.344 56.8602 21.472C57.0309 21.6 57.2123 21.696 57.4043 21.76C57.6176 21.8027 57.7989 21.824 57.9483 21.824C58.4389 21.824 58.8016 21.664 59.0363 21.344C59.2923 21.024 59.4203 20.6293 59.4203 20.16V19.616H61.7563ZM69.488 6.592V8.928H68.208C67.5253 8.928 66.928 9.17333 66.416 9.664C65.9253 10.1547 65.68 10.752 65.68 11.456V24H63.344V11.456C63.344 10.7733 63.472 10.144 63.728 9.568C63.984 8.97067 64.3253 8.45867 64.752 8.032C65.2 7.584 65.7227 7.232 66.32 6.976C66.9173 6.72 67.5467 6.592 68.208 6.592H69.488ZM75.5443 6.592C76.2269 6.592 76.8563 6.72 77.4323 6.976C78.0296 7.232 78.5416 7.584 78.9683 8.032C79.4163 8.48 79.7683 9.00267 80.0243 9.6C80.2803 10.176 80.4083 10.8053 80.4083 11.488V19.424C80.4083 20.0853 80.2803 20.7147 80.0243 21.312C79.7683 21.9093 79.4163 22.432 78.9683 22.88C78.5416 23.3067 78.0296 23.648 77.4323 23.904C76.8563 24.16 76.2269 24.288 75.5443 24.288C74.8829 24.288 74.2536 24.16 73.6562 23.904C73.0589 23.648 72.5363 23.3067 72.0883 22.88C71.6616 22.432 71.3203 21.9093 71.0643 21.312C70.8083 20.7147 70.6803 20.0853 70.6803 19.424V17.472C70.6803 16.7893 70.8083 16.16 71.0643 15.584C71.3203 14.9867 71.6616 14.4747 72.0883 14.048C72.5363 13.6 73.0589 13.248 73.6562 12.992C74.2536 12.736 74.8829 12.608 75.5443 12.608C76.5896 12.608 77.4323 12.928 78.0723 13.568V11.488C78.0723 10.784 77.8269 10.1867 77.3363 9.696C76.8456 9.20533 76.2483 8.96 75.5443 8.96C75.1603 8.96 74.8296 9.03467 74.5523 9.184C74.2963 9.33333 74.0723 9.52533 73.8802 9.76C73.7096 9.99467 73.5816 10.272 73.4963 10.592C73.4109 10.8907 73.3683 11.1893 73.3683 11.488V12.128H71.0003V11.488C71.0003 10.784 71.1176 10.1333 71.3523 9.536C71.5869 8.93867 71.9069 8.42667 72.3123 8C72.7176 7.552 73.1976 7.21067 73.7523 6.976C74.3069 6.72 74.9043 6.592 75.5443 6.592ZM78.0723 17.472C78.0723 16.7893 77.8269 16.2027 77.3363 15.712C76.8456 15.2 76.2483 14.944 75.5443 14.944C74.8616 14.944 74.2643 15.2 73.7523 15.712C73.2616 16.2027 73.0163 16.7893 73.0163 17.472V19.424C73.0163 20.1067 73.2616 20.704 73.7523 21.216C74.2643 21.7067 74.8616 21.952 75.5443 21.952C76.2483 21.952 76.8456 21.7067 77.3363 21.216C77.8269 20.704 78.0723 20.1067 78.0723 19.424V17.472ZM91.2563 19.616V20.16C91.2563 20.7147 91.1603 21.2373 90.9683 21.728C90.7976 22.2187 90.5416 22.6453 90.2003 23.008C89.8803 23.3707 89.4856 23.6587 89.0163 23.872C88.5683 24.064 88.0669 24.16 87.5123 24.16C87.0003 24.16 86.4989 24.0747 86.0083 23.904C85.5389 23.7333 85.1123 23.4773 84.7283 23.136C84.3443 22.7947 84.0349 22.3787 83.8003 21.888C83.5656 21.376 83.4483 20.8 83.4483 20.16V8.768H82.3923V6.752H83.4483V3.072H85.7843V6.752H88.5683V8.768H85.7843V20.16C85.7843 20.48 85.8376 20.7467 85.9443 20.96C86.0723 21.1733 86.2109 21.344 86.3602 21.472C86.5309 21.6 86.7123 21.696 86.9043 21.76C87.1176 21.8027 87.2989 21.824 87.4483 21.824C87.9389 21.824 88.3016 21.664 88.5363 21.344C88.7923 21.024 88.9203 20.6293 88.9203 20.16V19.616H91.2563ZM95.052 18.176V19.264C95.052 19.9893 95.276 20.5973 95.724 21.088C96.1933 21.5787 96.7693 21.824 97.452 21.824C98.1347 21.824 98.7 21.5787 99.148 21.088C99.6173 20.5973 99.852 19.9893 99.852 19.264V18.656H102.188V19.264C102.188 19.9467 102.06 20.5867 101.804 21.184C101.569 21.7813 101.239 22.304 100.812 22.752C100.385 23.1787 99.884 23.52 99.308 23.776C98.732 24.032 98.1133 24.16 97.452 24.16C96.7907 24.16 96.172 24.032 95.596 23.776C95.02 23.52 94.5187 23.1787 94.092 22.752C93.6653 22.304 93.324 21.7813 93.068 21.184C92.8333 20.5867 92.716 19.9467 92.716 19.264V11.456C92.716 10.7733 92.844 10.144 93.1 9.568C93.356 8.97067 93.708 8.448 94.156 8C94.604 7.552 95.1267 7.2 95.724 6.944C96.3213 6.688 96.9507 6.56 97.612 6.56C98.2947 6.56 98.924 6.688 99.5 6.944C100.097 7.2 100.62 7.552 101.068 8C101.516 8.448 101.868 8.97067 102.124 9.568C102.38 10.144 102.508 10.7733 102.508 11.456V12.064C102.508 12.7893 102.316 13.4613 101.932 14.08C101.569 14.6773 101.068 15.136 100.428 15.456L95.052 18.176ZM95.052 15.552L99.372 13.376C99.9053 13.0987 100.172 12.6613 100.172 12.064V11.456C100.172 10.752 99.916 10.1547 99.404 9.664C98.9133 9.152 98.316 8.896 97.612 8.896C96.908 8.896 96.3 9.152 95.788 9.664C95.2973 10.1547 95.052 10.752 95.052 11.456V15.552Z" fill="white"/>
</svg>
