<svg width="203" height="69" viewBox="0 0 203 69" fill="none" xmlns="http://www.w3.org/2000/svg">
<path d="M22.304 21.92V15.392C22.304 13.344 21.6 11.616 20.192 10.208C18.784 8.8 17.056 8.096 15.008 8.096C12.96 8.096 11.2 8.8 9.728 10.208C8.32 11.616 7.616 13.344 7.616 15.392V53.6C7.616 55.648 8.32 57.376 9.728 58.784C11.2 60.192 12.96 60.896 15.008 60.896C17.056 60.896 18.784 60.192 20.192 58.784C21.6 57.376 22.304 55.648 22.304 53.6V47.072H29.888V53.6C29.888 55.648 29.472 57.568 28.64 59.36C27.872 61.152 26.816 62.72 25.472 64.064C24.128 65.408 22.56 66.496 20.768 67.328C18.976 68.096 17.056 68.48 15.008 68.48C12.96 68.48 11.008 68.096 9.152 67.328C7.36 66.496 5.792 65.408 4.448 64.064C3.104 62.72 2.048 61.152 1.28 59.36C0.512 57.568 0.128 55.648 0.128 53.6V15.392C0.128 13.344 0.512 11.424 1.28 9.632C2.048 7.84 3.104 6.272 4.448 4.928C5.792 3.584 7.36 2.528 9.152 1.75999C11.008 0.927998 12.96 0.511999 15.008 0.511999C17.056 0.511999 18.976 0.927998 20.768 1.75999C22.56 2.528 24.128 3.584 25.472 4.928C26.816 6.272 27.872 7.84 28.64 9.632C29.472 11.424 29.888 13.344 29.888 15.392V21.92H22.304ZM52.0483 0.607998C54.0963 0.607998 56.0163 0.991997 57.8083 1.75999C59.6003 2.528 61.1683 3.584 62.5123 4.928C63.8563 6.272 64.9123 7.84 65.6803 9.632C66.5123 11.424 66.9283 13.344 66.9283 15.392V68H59.3443V44.864L44.6562 51.296V68H37.1683V15.392C37.1683 13.344 37.5523 11.424 38.3203 9.632C39.0883 7.84 40.1443 6.272 41.4883 4.928C42.8323 3.584 44.4003 2.528 46.1923 1.75999C48.0483 0.991997 50.0003 0.607998 52.0483 0.607998ZM59.3443 15.392C59.3443 13.344 58.6403 11.616 57.2323 10.208C55.8243 8.8 54.0963 8.096 52.0483 8.096C50.0003 8.096 48.2403 8.8 46.7682 10.208C45.3602 11.616 44.6562 13.344 44.6562 15.392V43.616L59.3443 37.28V15.392ZM90.7648 28.352C92.1728 29.056 93.6448 29.856 95.1808 30.752C96.7808 31.584 98.2208 32.608 99.5008 33.824C100.845 35.04 101.933 36.512 102.765 38.24C103.661 39.904 104.109 41.888 104.109 44.192V53.6C104.109 55.648 103.693 57.568 102.861 59.36C102.093 61.152 101.037 62.72 99.6927 64.064C98.3488 65.408 96.7808 66.496 94.9888 67.328C93.1968 68.096 91.2768 68.48 89.2288 68.48C87.1808 68.48 85.2288 68.096 83.3728 67.328C81.5808 66.496 80.0128 65.408 78.6688 64.064C77.3248 62.72 76.2688 61.152 75.5008 59.36C74.7328 57.568 74.3488 55.648 74.3488 53.6V47.072H81.8368V53.6C81.8368 55.648 82.5408 57.376 83.9488 58.784C85.4208 60.192 87.1808 60.896 89.2288 60.896C91.2768 60.896 93.0048 60.192 94.4128 58.784C95.8208 57.376 96.5248 55.648 96.5248 53.6V44.192C96.5248 42.144 95.7888 40.512 94.3168 39.296C92.8448 38.016 90.5408 36.608 87.4048 35.072C86.0608 34.432 84.6528 33.728 83.1808 32.96C81.7728 32.128 80.4928 31.2 79.3408 30.176C78.1888 29.088 77.2288 27.84 76.4608 26.432C75.6928 24.96 75.3088 23.232 75.3088 21.248V15.392C75.3088 13.28 75.6608 11.328 76.3648 9.536C77.0688 7.68 78.0288 6.112 79.2448 4.832C80.5248 3.488 81.9968 2.432 83.6608 1.664C85.3888 0.895998 87.2448 0.511999 89.2288 0.511999C91.2128 0.511999 93.0368 0.895998 94.7008 1.664C96.3648 2.432 97.8048 3.488 99.0208 4.832C100.301 6.112 101.293 7.68 101.997 9.536C102.701 11.328 103.053 13.28 103.053 15.392V21.92H95.5648V15.392C95.5648 12.896 94.8928 11.072 93.5488 9.92C92.2048 8.704 90.7648 8.096 89.2288 8.096C87.6928 8.096 86.2528 8.704 84.9088 9.92C83.5648 11.072 82.8928 12.896 82.8928 15.392V21.248C82.8928 22.72 83.5008 23.936 84.7168 24.896C85.9968 25.856 88.0128 27.008 90.7648 28.352ZM141.935 0.991999V68H134.351V39.68L119.663 47.84V68H112.175V0.991999H119.663V39.776L134.351 31.712V0.991999H141.935ZM177.374 60.512V68H151.454V1.184H158.942V60.512H177.374ZM202.609 0.991999V18.944C202.609 20.288 202.257 21.792 201.553 23.456C200.849 25.12 199.921 26.752 198.769 28.352C197.681 29.952 196.465 31.424 195.121 32.768C193.841 34.112 192.625 35.104 191.473 35.744V68H183.984V35.744C182.769 35.168 181.489 34.208 180.145 32.864C178.865 31.52 177.681 30.048 176.593 28.448C175.505 26.848 174.609 25.216 173.905 23.552C173.201 21.824 172.849 20.288 172.849 18.944V0.991999H180.337V18.944C180.337 19.456 180.625 20.288 181.201 21.44C181.841 22.528 182.577 23.648 183.409 24.8C184.241 25.952 185.073 26.976 185.905 27.872C186.737 28.704 187.345 29.12 187.729 29.12C188.113 29.12 188.689 28.704 189.457 27.872C190.289 26.976 191.121 25.952 191.953 24.8C192.785 23.648 193.489 22.528 194.065 21.44C194.705 20.288 195.025 19.456 195.025 18.944V0.991999H202.609Z" fill="#F7F5F1"/>
</svg>
